<svg width="58" height="33" viewBox="0 0 58 33" fill="none" xmlns="http://www.w3.org/2000/svg">
<path d="M26.9833 0.0417023C39.5252 -0.654537 49.7599 7.53831 57.2873 16.4426L57.2538 16.5389C50.5031 24.2505 41.3325 32.0936 30.5147 32.9302C18.2636 33.8775 7.35672 25.1136 0 16.4555C4.26474 11.4968 9.12158 6.85009 14.9568 3.69616C18.5674 1.7454 22.8346 0.271911 26.9833 0.0417023ZM19.8937 16.0809C20.0072 11.7944 23.6635 8.103 28.0254 7.90969L28.1365 7.82146V3.97129C27.6767 4.06995 27.1826 4.04829 26.7057 4.11246C20.6924 4.91939 15.9082 10.0762 15.8739 16.0817H19.8945L19.8937 16.0809ZM41.3374 16.0809C41.3325 9.59976 35.6582 4.04027 29.0741 4.03626V7.91932C33.5038 8.00274 37.1674 11.7567 37.3161 16.0809H41.3366H41.3374ZM27.787 9.84761C24.7595 10.1356 22.1469 12.8989 21.9052 15.8515C21.3833 22.2219 29.4236 25.7063 33.6655 20.8206C37.6574 16.2221 33.9979 9.25725 27.787 9.84761ZM41.3374 17.0025H37.4173C37.4035 17.0025 37.3814 16.9576 37.3504 16.952C37.1944 16.9648 37.2622 17.4068 37.2417 17.5536C36.6521 21.6941 33.3233 24.771 29.0749 25.0975V29.0463C35.6345 28.9156 41.1708 23.4419 41.3383 17.0017L41.3374 17.0025ZM19.8937 17.0025H15.8731C16.0487 23.4652 21.5516 28.8859 28.1365 29.0471V25.0983C23.7689 24.8336 20.1469 21.3051 19.8945 17.0033L19.8937 17.0025Z" fill="url(#paint0_linear_7_1300)"/>
<path d="M28.1226 11.6909C31.9823 11.3043 34.5891 15.3421 32.8382 18.6918C31.2971 21.6412 27.19 22.1385 24.9849 19.6038C22.4605 16.7025 24.2507 12.0783 28.1226 11.6909ZM30.8667 13.9906C30.6168 14.0299 30.2819 14.2625 30.1455 14.4678C29.4571 15.5066 30.9247 16.648 31.8222 15.7849C32.5727 15.0638 31.8614 13.835 30.8667 13.9906Z" fill="url(#paint1_linear_7_1300)"/>
<defs>
<linearGradient id="paint0_linear_7_1300" x1="0" y1="16.4996" x2="57.2865" y2="16.4996" gradientUnits="userSpaceOnUse">
<stop stop-color="#460C97"/>
<stop offset="1" stop-color="#6C0EDC"/>
</linearGradient>
<linearGradient id="paint1_linear_7_1300" x1="23.8138" y1="16.4515" x2="33.3943" y2="16.4515" gradientUnits="userSpaceOnUse">
<stop stop-color="#460C97"/>
<stop offset="1" stop-color="#6C0EDC"/>
</linearGradient>
</defs>
</svg>
