<svg width="1166" height="256" viewBox="0 0 1166 256" fill="none" xmlns="http://www.w3.org/2000/svg">
<g opacity="0.869276">
<path d="M1158 0C1162.42 0 1166 3.58172 1166 8V248C1166 252.418 1162.42 256 1158 256H8C3.58174 256 0 252.418 0 248V8C0 3.58172 3.58172 0 8 0H1158Z" fill="#374151"/>
<path d="M1158 0C1162.42 0 1166 3.58172 1166 8V248C1166 252.418 1162.42 256 1158 256H8C3.58174 256 0 252.418 0 248V8C0 3.58172 3.58172 0 8 0H1158Z" stroke="#E5E7EB"/>
<path d="M686.188 158H479.797V98H686.188V158Z" stroke="#E5E7EB"/>
<path d="M597.984 134H567.984V98H597.984V134Z" stroke="#E5E7EB"/>
<g clip-path="url(#clip0_3_952)">
<path d="M586.322 101.287C586.322 100.402 585.97 99.5533 585.344 98.9274C584.718 98.3015 583.869 97.9498 582.984 97.9498C582.099 97.9498 581.25 98.3015 580.624 98.9274C579.998 99.5533 579.647 100.402 579.647 101.287C579.647 102.173 579.998 103.021 580.624 103.647C581.25 104.273 582.099 104.625 582.984 104.625C583.869 104.625 584.718 104.273 585.344 103.647C585.97 103.021 586.322 102.173 586.322 101.287ZM586.322 130.213C586.322 129.327 585.97 128.479 585.344 127.853C584.718 127.227 583.869 126.875 582.984 126.875C582.099 126.875 581.25 127.227 580.624 127.853C579.998 128.479 579.647 129.327 579.647 130.213C579.647 131.098 579.998 131.947 580.624 132.573C581.25 133.199 582.099 133.55 582.984 133.55C583.869 133.55 584.718 133.199 585.344 132.573C585.97 131.947 586.322 131.098 586.322 130.213ZM568.522 119.088C569.407 119.088 570.256 118.736 570.882 118.11C571.508 117.484 571.859 116.635 571.859 115.75C571.859 114.865 571.508 114.016 570.882 113.39C570.256 112.764 569.407 112.412 568.522 112.412C567.636 112.412 566.788 112.764 566.162 113.39C565.536 114.016 565.184 114.865 565.184 115.75C565.184 116.635 565.536 117.484 566.162 118.11C566.788 118.736 567.636 119.088 568.522 119.088ZM600.784 115.75C600.784 114.865 600.433 114.016 599.807 113.39C599.181 112.764 598.332 112.412 597.447 112.412C596.562 112.412 595.713 112.764 595.087 113.39C594.461 114.016 594.109 114.865 594.109 115.75C594.109 116.635 594.461 117.484 595.087 118.11C595.713 118.736 596.562 119.088 597.447 119.088C598.332 119.088 599.181 118.736 599.807 118.11C600.433 117.484 600.784 116.635 600.784 115.75ZM575.12 128.335C575.43 128.025 575.676 127.657 575.844 127.252C576.012 126.847 576.098 126.413 576.098 125.975C576.098 125.536 576.012 125.102 575.844 124.697C575.676 124.292 575.43 123.924 575.12 123.614C574.81 123.304 574.442 123.058 574.037 122.89C573.632 122.723 573.198 122.636 572.76 122.636C571.874 122.636 571.025 122.988 570.399 123.614C569.773 124.24 569.421 125.089 569.421 125.975C569.421 126.86 569.773 127.709 570.399 128.335C571.025 128.961 571.874 129.313 572.76 129.313C573.645 129.313 574.494 128.961 575.12 128.335ZM575.12 107.879C575.446 107.573 575.706 107.204 575.886 106.795C576.067 106.386 576.163 105.945 576.169 105.498C576.176 105.051 576.093 104.607 575.925 104.193C575.756 103.779 575.507 103.403 575.191 103.087C574.874 102.772 574.498 102.522 574.083 102.355C573.669 102.187 573.225 102.105 572.778 102.112C572.331 102.119 571.891 102.216 571.482 102.397C571.073 102.578 570.705 102.839 570.399 103.165C569.773 103.791 569.421 104.64 569.421 105.525C569.421 106.411 569.773 107.26 570.399 107.886C571.025 108.512 571.874 108.864 572.76 108.864C573.645 108.864 574.494 108.512 575.12 107.886V107.879ZM590.848 128.335C591.158 128.645 591.526 128.891 591.931 129.059C592.336 129.227 592.771 129.313 593.209 129.313C593.647 129.313 594.081 129.227 594.486 129.059C594.892 128.891 595.26 128.645 595.57 128.335C595.88 128.025 596.125 127.657 596.293 127.252C596.461 126.847 596.547 126.413 596.547 125.975C596.547 125.536 596.461 125.102 596.293 124.697C596.125 124.292 595.88 123.924 595.57 123.614C595.26 123.304 594.892 123.058 594.486 122.89C594.081 122.723 593.647 122.636 593.209 122.636C592.771 122.636 592.336 122.723 591.931 122.89C591.526 123.058 591.158 123.304 590.848 123.614C590.538 123.924 590.292 124.292 590.125 124.697C589.957 125.102 589.871 125.536 589.871 125.975C589.871 126.413 589.957 126.847 590.125 127.252C590.292 127.657 590.538 128.025 590.848 128.335Z" fill="#6C0EDC"/>
</g>
<path d="M482.393 152V140.364H483.803V150.75H489.212V152H482.393ZM494.757 152.182C493.969 152.182 493.278 151.994 492.683 151.619C492.092 151.244 491.63 150.72 491.297 150.045C490.967 149.371 490.803 148.583 490.803 147.682C490.803 146.773 490.967 145.979 491.297 145.301C491.63 144.623 492.092 144.097 492.683 143.722C493.278 143.347 493.969 143.159 494.757 143.159C495.545 143.159 496.234 143.347 496.825 143.722C497.42 144.097 497.882 144.623 498.212 145.301C498.545 145.979 498.712 146.773 498.712 147.682C498.712 148.583 498.545 149.371 498.212 150.045C497.882 150.72 497.42 151.244 496.825 151.619C496.234 151.994 495.545 152.182 494.757 152.182ZM494.757 150.977C495.356 150.977 495.848 150.824 496.234 150.517C496.621 150.21 496.907 149.807 497.092 149.307C497.278 148.807 497.371 148.265 497.371 147.682C497.371 147.098 497.278 146.555 497.092 146.051C496.907 145.547 496.621 145.14 496.234 144.83C495.848 144.519 495.356 144.364 494.757 144.364C494.159 144.364 493.666 144.519 493.28 144.83C492.893 145.14 492.607 145.547 492.422 146.051C492.236 146.555 492.143 147.098 492.143 147.682C492.143 148.265 492.236 148.807 492.422 149.307C492.607 149.807 492.893 150.21 493.28 150.517C493.666 150.824 494.159 150.977 494.757 150.977ZM503.327 152.205C502.774 152.205 502.272 152.1 501.821 151.892C501.37 151.68 501.012 151.375 500.747 150.977C500.482 150.576 500.349 150.091 500.349 149.523C500.349 149.023 500.448 148.617 500.645 148.307C500.842 147.992 501.105 147.746 501.435 147.568C501.764 147.39 502.128 147.258 502.526 147.17C502.927 147.08 503.33 147.008 503.736 146.955C504.266 146.886 504.696 146.835 505.026 146.801C505.359 146.763 505.601 146.701 505.753 146.614C505.908 146.527 505.986 146.375 505.986 146.159V146.114C505.986 145.553 505.832 145.117 505.526 144.807C505.223 144.496 504.762 144.341 504.145 144.341C503.505 144.341 503.003 144.481 502.639 144.761C502.276 145.042 502.02 145.341 501.872 145.659L500.599 145.205C500.827 144.674 501.13 144.261 501.509 143.966C501.891 143.667 502.308 143.458 502.759 143.341C503.213 143.22 503.66 143.159 504.099 143.159C504.38 143.159 504.702 143.193 505.065 143.261C505.433 143.326 505.787 143.46 506.128 143.665C506.473 143.869 506.759 144.178 506.986 144.591C507.213 145.004 507.327 145.557 507.327 146.25V152H505.986V150.818H505.918C505.827 151.008 505.675 151.21 505.463 151.426C505.251 151.642 504.969 151.826 504.616 151.977C504.264 152.129 503.834 152.205 503.327 152.205ZM503.531 151C504.062 151 504.509 150.896 504.872 150.688C505.24 150.479 505.516 150.21 505.702 149.881C505.891 149.551 505.986 149.205 505.986 148.841V147.614C505.929 147.682 505.804 147.744 505.611 147.801C505.421 147.854 505.202 147.902 504.952 147.943C504.705 147.981 504.465 148.015 504.23 148.045C503.999 148.072 503.812 148.095 503.668 148.114C503.319 148.159 502.993 148.233 502.69 148.335C502.391 148.434 502.149 148.583 501.963 148.784C501.781 148.981 501.69 149.25 501.69 149.591C501.69 150.057 501.863 150.409 502.207 150.648C502.556 150.883 502.997 151 503.531 151ZM513.07 152.182C512.342 152.182 511.7 151.998 511.143 151.631C510.587 151.259 510.151 150.737 509.837 150.062C509.522 149.384 509.365 148.583 509.365 147.659C509.365 146.742 509.522 145.947 509.837 145.273C510.151 144.598 510.589 144.078 511.149 143.71C511.71 143.343 512.357 143.159 513.092 143.159C513.661 143.159 514.109 143.254 514.439 143.443C514.772 143.629 515.026 143.841 515.2 144.08C515.378 144.314 515.517 144.508 515.615 144.659H515.729V140.364H517.07V152H515.774V150.659H515.615C515.517 150.818 515.376 151.019 515.195 151.261C515.013 151.5 514.753 151.714 514.416 151.903C514.079 152.089 513.63 152.182 513.07 152.182ZM513.251 150.977C513.789 150.977 514.244 150.837 514.615 150.557C514.986 150.273 515.268 149.881 515.462 149.381C515.655 148.877 515.751 148.295 515.751 147.636C515.751 146.985 515.657 146.415 515.467 145.926C515.278 145.434 514.998 145.051 514.626 144.778C514.255 144.502 513.797 144.364 513.251 144.364C512.683 144.364 512.21 144.509 511.831 144.801C511.456 145.089 511.174 145.481 510.984 145.977C510.799 146.47 510.706 147.023 510.706 147.636C510.706 148.258 510.801 148.822 510.99 149.33C511.183 149.833 511.467 150.235 511.842 150.534C512.221 150.83 512.691 150.977 513.251 150.977ZM519.712 152V143.273H521.053V152H519.712ZM520.393 141.818C520.132 141.818 519.907 141.729 519.717 141.551C519.532 141.373 519.439 141.159 519.439 140.909C519.439 140.659 519.532 140.445 519.717 140.267C519.907 140.089 520.132 140 520.393 140C520.655 140 520.878 140.089 521.064 140.267C521.253 140.445 521.348 140.659 521.348 140.909C521.348 141.159 521.253 141.373 521.064 141.551C520.878 141.729 520.655 141.818 520.393 141.818ZM524.849 146.75V152H523.509V143.273H524.804V144.636H524.918C525.122 144.193 525.433 143.837 525.849 143.568C526.266 143.295 526.804 143.159 527.463 143.159C528.054 143.159 528.571 143.28 529.014 143.523C529.457 143.761 529.802 144.125 530.048 144.614C530.295 145.098 530.418 145.712 530.418 146.455V152H529.077V146.545C529.077 145.86 528.899 145.326 528.543 144.943C528.187 144.557 527.698 144.364 527.077 144.364C526.649 144.364 526.266 144.456 525.929 144.642C525.596 144.828 525.332 145.098 525.139 145.455C524.946 145.811 524.849 146.242 524.849 146.75ZM536.391 155.455C535.743 155.455 535.186 155.371 534.72 155.205C534.254 155.042 533.866 154.826 533.555 154.557C533.249 154.292 533.004 154.008 532.822 153.705L533.891 152.955C534.012 153.114 534.165 153.295 534.351 153.5C534.536 153.708 534.79 153.888 535.112 154.04C535.438 154.195 535.864 154.273 536.391 154.273C537.095 154.273 537.677 154.102 538.135 153.761C538.593 153.42 538.822 152.886 538.822 152.159V150.386H538.709C538.61 150.545 538.47 150.742 538.288 150.977C538.11 151.208 537.853 151.415 537.516 151.597C537.182 151.775 536.732 151.864 536.163 151.864C535.459 151.864 534.826 151.697 534.266 151.364C533.709 151.03 533.268 150.545 532.942 149.909C532.62 149.273 532.459 148.5 532.459 147.591C532.459 146.697 532.616 145.919 532.93 145.256C533.245 144.589 533.682 144.074 534.243 143.71C534.804 143.343 535.451 143.159 536.186 143.159C536.754 143.159 537.205 143.254 537.538 143.443C537.875 143.629 538.133 143.841 538.311 144.08C538.493 144.314 538.633 144.508 538.732 144.659H538.868V143.273H540.163V152.25C540.163 153 539.993 153.61 539.652 154.08C539.315 154.553 538.86 154.9 538.288 155.119C537.72 155.343 537.088 155.455 536.391 155.455ZM536.345 150.659C536.883 150.659 537.338 150.536 537.709 150.29C538.08 150.044 538.362 149.689 538.555 149.227C538.749 148.765 538.845 148.212 538.845 147.568C538.845 146.939 538.75 146.384 538.561 145.903C538.372 145.422 538.091 145.045 537.72 144.773C537.349 144.5 536.891 144.364 536.345 144.364C535.777 144.364 535.304 144.508 534.925 144.795C534.55 145.083 534.268 145.47 534.078 145.955C533.893 146.439 533.8 146.977 533.8 147.568C533.8 148.174 533.894 148.71 534.084 149.176C534.277 149.638 534.561 150.002 534.936 150.267C535.315 150.528 535.785 150.659 536.345 150.659ZM548.459 146.75V152H547.118V143.273H548.413V144.636H548.527C548.732 144.193 549.042 143.837 549.459 143.568C549.875 143.295 550.413 143.159 551.072 143.159C551.663 143.159 552.18 143.28 552.624 143.523C553.067 143.761 553.411 144.125 553.658 144.614C553.904 145.098 554.027 145.712 554.027 146.455V152H552.686V146.545C552.686 145.86 552.508 145.326 552.152 144.943C551.796 144.557 551.307 144.364 550.686 144.364C550.258 144.364 549.875 144.456 549.538 144.642C549.205 144.828 548.942 145.098 548.749 145.455C548.555 145.811 548.459 146.242 548.459 146.75ZM560.136 152.182C559.295 152.182 558.57 151.996 557.96 151.625C557.354 151.25 556.886 150.727 556.557 150.057C556.231 149.383 556.068 148.598 556.068 147.705C556.068 146.811 556.231 146.023 556.557 145.341C556.886 144.655 557.345 144.121 557.932 143.739C558.523 143.352 559.212 143.159 560 143.159C560.455 143.159 560.903 143.235 561.347 143.386C561.79 143.538 562.193 143.784 562.557 144.125C562.92 144.462 563.21 144.909 563.426 145.466C563.642 146.023 563.75 146.708 563.75 147.523V148.091H557.023V146.932H562.386C562.386 146.439 562.288 146 562.091 145.614C561.898 145.227 561.621 144.922 561.261 144.699C560.905 144.475 560.485 144.364 560 144.364C559.466 144.364 559.004 144.496 558.614 144.761C558.227 145.023 557.93 145.364 557.722 145.784C557.513 146.205 557.409 146.655 557.409 147.136V147.909C557.409 148.568 557.523 149.127 557.75 149.585C557.981 150.04 558.301 150.386 558.71 150.625C559.119 150.86 559.595 150.977 560.136 150.977C560.489 150.977 560.807 150.928 561.091 150.83C561.379 150.727 561.627 150.576 561.835 150.375C562.044 150.17 562.205 149.917 562.318 149.614L563.614 149.977C563.477 150.417 563.248 150.803 562.926 151.136C562.604 151.466 562.206 151.723 561.733 151.909C561.259 152.091 560.727 152.182 560.136 152.182ZM569.585 143.273V144.409H565.062V143.273H569.585ZM566.381 141.182H567.722V149.5C567.722 149.879 567.777 150.163 567.886 150.352C568 150.538 568.144 150.663 568.318 150.727C568.496 150.788 568.684 150.818 568.881 150.818C569.028 150.818 569.15 150.811 569.244 150.795C569.339 150.777 569.415 150.761 569.472 150.75L569.744 151.955C569.653 151.989 569.527 152.023 569.364 152.057C569.201 152.095 568.994 152.114 568.744 152.114C568.366 152.114 567.994 152.032 567.631 151.869C567.271 151.706 566.972 151.458 566.733 151.125C566.498 150.792 566.381 150.371 566.381 149.864V141.182ZM573.58 152L570.92 143.273H572.33L574.216 149.955H574.307L576.17 143.273H577.602L579.443 149.932H579.534L581.42 143.273H582.83L580.17 152H578.852L576.943 145.295H576.807L574.898 152H573.58ZM587.851 152.182C587.063 152.182 586.372 151.994 585.777 151.619C585.186 151.244 584.724 150.72 584.391 150.045C584.061 149.371 583.896 148.583 583.896 147.682C583.896 146.773 584.061 145.979 584.391 145.301C584.724 144.623 585.186 144.097 585.777 143.722C586.372 143.347 587.063 143.159 587.851 143.159C588.639 143.159 589.328 143.347 589.919 143.722C590.514 144.097 590.976 144.623 591.305 145.301C591.639 145.979 591.805 146.773 591.805 147.682C591.805 148.583 591.639 149.371 591.305 150.045C590.976 150.72 590.514 151.244 589.919 151.619C589.328 151.994 588.639 152.182 587.851 152.182ZM587.851 150.977C588.449 150.977 588.942 150.824 589.328 150.517C589.714 150.21 590 149.807 590.186 149.307C590.372 148.807 590.464 148.265 590.464 147.682C590.464 147.098 590.372 146.555 590.186 146.051C590 145.547 589.714 145.14 589.328 144.83C588.942 144.519 588.449 144.364 587.851 144.364C587.252 144.364 586.76 144.519 586.374 144.83C585.987 145.14 585.701 145.547 585.516 146.051C585.33 146.555 585.237 147.098 585.237 147.682C585.237 148.265 585.33 148.807 585.516 149.307C585.701 149.807 585.987 150.21 586.374 150.517C586.76 150.824 587.252 150.977 587.851 150.977ZM593.852 152V143.273H595.148V144.591H595.239C595.398 144.159 595.686 143.809 596.102 143.54C596.519 143.271 596.989 143.136 597.511 143.136C597.61 143.136 597.733 143.138 597.881 143.142C598.028 143.146 598.14 143.152 598.216 143.159V144.523C598.17 144.511 598.066 144.494 597.903 144.472C597.744 144.445 597.576 144.432 597.398 144.432C596.973 144.432 596.595 144.521 596.261 144.699C595.932 144.873 595.67 145.116 595.477 145.426C595.288 145.733 595.193 146.083 595.193 146.477V152H593.852ZM601.055 148.818L601.033 147.159H601.305L605.124 143.273H606.783L602.714 147.386H602.601L601.055 148.818ZM599.805 152V140.364H601.146V152H599.805ZM605.351 152L601.942 147.682L602.896 146.75L607.055 152H605.351ZM615.577 152.205C615.024 152.205 614.522 152.1 614.071 151.892C613.62 151.68 613.262 151.375 612.997 150.977C612.732 150.576 612.599 150.091 612.599 149.523C612.599 149.023 612.698 148.617 612.895 148.307C613.092 147.992 613.355 147.746 613.685 147.568C614.014 147.39 614.378 147.258 614.776 147.17C615.177 147.08 615.58 147.008 615.986 146.955C616.516 146.886 616.946 146.835 617.276 146.801C617.609 146.763 617.851 146.701 618.003 146.614C618.158 146.527 618.236 146.375 618.236 146.159V146.114C618.236 145.553 618.082 145.117 617.776 144.807C617.473 144.496 617.012 144.341 616.395 144.341C615.755 144.341 615.253 144.481 614.889 144.761C614.526 145.042 614.27 145.341 614.122 145.659L612.849 145.205C613.077 144.674 613.38 144.261 613.759 143.966C614.141 143.667 614.558 143.458 615.009 143.341C615.463 143.22 615.91 143.159 616.349 143.159C616.63 143.159 616.952 143.193 617.315 143.261C617.683 143.326 618.037 143.46 618.378 143.665C618.723 143.869 619.009 144.178 619.236 144.591C619.463 145.004 619.577 145.557 619.577 146.25V152H618.236V150.818H618.168C618.077 151.008 617.925 151.21 617.713 151.426C617.501 151.642 617.219 151.826 616.866 151.977C616.514 152.129 616.084 152.205 615.577 152.205ZM615.781 151C616.312 151 616.759 150.896 617.122 150.688C617.49 150.479 617.766 150.21 617.952 149.881C618.141 149.551 618.236 149.205 618.236 148.841V147.614C618.179 147.682 618.054 147.744 617.861 147.801C617.671 147.854 617.452 147.902 617.202 147.943C616.955 147.981 616.715 148.015 616.48 148.045C616.249 148.072 616.062 148.095 615.918 148.114C615.569 148.159 615.243 148.233 614.94 148.335C614.641 148.434 614.399 148.583 614.213 148.784C614.031 148.981 613.94 149.25 613.94 149.591C613.94 150.057 614.113 150.409 614.457 150.648C614.806 150.883 615.247 151 615.781 151ZM623.365 146.75V152H622.024V143.273H623.32V144.636H623.433C623.638 144.193 623.948 143.837 624.365 143.568C624.782 143.295 625.32 143.159 625.979 143.159C626.57 143.159 627.087 143.28 627.53 143.523C627.973 143.761 628.318 144.125 628.564 144.614C628.81 145.098 628.933 145.712 628.933 146.455V152H627.592V146.545C627.592 145.86 627.414 145.326 627.058 144.943C626.702 144.557 626.214 144.364 625.592 144.364C625.164 144.364 624.782 144.456 624.445 144.642C624.111 144.828 623.848 145.098 623.655 145.455C623.462 145.811 623.365 146.242 623.365 146.75ZM633.952 152.205C633.399 152.205 632.897 152.1 632.446 151.892C631.995 151.68 631.637 151.375 631.372 150.977C631.107 150.576 630.974 150.091 630.974 149.523C630.974 149.023 631.073 148.617 631.27 148.307C631.467 147.992 631.73 147.746 632.06 147.568C632.389 147.39 632.753 147.258 633.151 147.17C633.552 147.08 633.955 147.008 634.361 146.955C634.891 146.886 635.321 146.835 635.651 146.801C635.984 146.763 636.226 146.701 636.378 146.614C636.533 146.527 636.611 146.375 636.611 146.159V146.114C636.611 145.553 636.457 145.117 636.151 144.807C635.848 144.496 635.387 144.341 634.77 144.341C634.13 144.341 633.628 144.481 633.264 144.761C632.901 145.042 632.645 145.341 632.497 145.659L631.224 145.205C631.452 144.674 631.755 144.261 632.134 143.966C632.516 143.667 632.933 143.458 633.384 143.341C633.838 143.22 634.285 143.159 634.724 143.159C635.005 143.159 635.327 143.193 635.69 143.261C636.058 143.326 636.412 143.46 636.753 143.665C637.098 143.869 637.384 144.178 637.611 144.591C637.838 145.004 637.952 145.557 637.952 146.25V152H636.611V150.818H636.543C636.452 151.008 636.3 151.21 636.088 151.426C635.876 151.642 635.594 151.826 635.241 151.977C634.889 152.129 634.459 152.205 633.952 152.205ZM634.156 151C634.687 151 635.134 150.896 635.497 150.688C635.865 150.479 636.141 150.21 636.327 149.881C636.516 149.551 636.611 149.205 636.611 148.841V147.614C636.554 147.682 636.429 147.744 636.236 147.801C636.046 147.854 635.827 147.902 635.577 147.943C635.33 147.981 635.09 148.015 634.855 148.045C634.624 148.072 634.437 148.095 634.293 148.114C633.944 148.159 633.618 148.233 633.315 148.335C633.016 148.434 632.774 148.583 632.588 148.784C632.406 148.981 632.315 149.25 632.315 149.591C632.315 150.057 632.488 150.409 632.832 150.648C633.181 150.883 633.622 151 634.156 151ZM641.74 140.364V152H640.399V140.364H641.74ZM645.06 155.273C644.832 155.273 644.63 155.254 644.452 155.216C644.274 155.182 644.151 155.148 644.082 155.114L644.423 153.932C644.749 154.015 645.037 154.045 645.287 154.023C645.537 154 645.759 153.888 645.952 153.688C646.149 153.491 646.329 153.17 646.491 152.727L646.741 152.045L643.514 143.273H644.969L647.378 150.227H647.469L649.878 143.273H651.332L647.628 153.273C647.461 153.723 647.255 154.097 647.009 154.392C646.762 154.691 646.476 154.913 646.151 155.057C645.829 155.201 645.465 155.273 645.06 155.273ZM659.284 145.227L658.08 145.568C658.004 145.367 657.892 145.172 657.744 144.983C657.6 144.79 657.403 144.631 657.153 144.506C656.903 144.381 656.583 144.318 656.193 144.318C655.659 144.318 655.214 144.441 654.858 144.688C654.506 144.93 654.33 145.239 654.33 145.614C654.33 145.947 654.451 146.21 654.693 146.403C654.936 146.597 655.314 146.758 655.83 146.886L657.125 147.205C657.905 147.394 658.487 147.684 658.869 148.074C659.252 148.46 659.443 148.958 659.443 149.568C659.443 150.068 659.299 150.515 659.011 150.909C658.727 151.303 658.33 151.614 657.818 151.841C657.307 152.068 656.712 152.182 656.034 152.182C655.144 152.182 654.407 151.989 653.824 151.602C653.241 151.216 652.871 150.652 652.716 149.909L653.989 149.591C654.11 150.061 654.339 150.413 654.676 150.648C655.017 150.883 655.462 151 656.011 151C656.636 151 657.133 150.867 657.5 150.602C657.871 150.333 658.057 150.011 658.057 149.636C658.057 149.333 657.951 149.08 657.739 148.875C657.527 148.667 657.201 148.511 656.761 148.409L655.307 148.068C654.508 147.879 653.92 147.585 653.545 147.188C653.174 146.786 652.989 146.284 652.989 145.682C652.989 145.189 653.127 144.754 653.403 144.375C653.684 143.996 654.064 143.699 654.545 143.483C655.03 143.267 655.58 143.159 656.193 143.159C657.057 143.159 657.735 143.348 658.227 143.727C658.723 144.106 659.076 144.606 659.284 145.227ZM661.462 152V143.273H662.803V152H661.462ZM662.143 141.818C661.882 141.818 661.657 141.729 661.467 141.551C661.282 141.373 661.189 141.159 661.189 140.909C661.189 140.659 661.282 140.445 661.467 140.267C661.657 140.089 661.882 140 662.143 140C662.405 140 662.628 140.089 662.814 140.267C663.003 140.445 663.098 140.659 663.098 140.909C663.098 141.159 663.003 141.373 662.814 141.551C662.628 141.729 662.405 141.818 662.143 141.818ZM671.44 145.227L670.236 145.568C670.16 145.367 670.048 145.172 669.901 144.983C669.757 144.79 669.56 144.631 669.31 144.506C669.06 144.381 668.74 144.318 668.349 144.318C667.815 144.318 667.37 144.441 667.014 144.688C666.662 144.93 666.486 145.239 666.486 145.614C666.486 145.947 666.607 146.21 666.849 146.403C667.092 146.597 667.471 146.758 667.986 146.886L669.281 147.205C670.062 147.394 670.643 147.684 671.026 148.074C671.408 148.46 671.599 148.958 671.599 149.568C671.599 150.068 671.455 150.515 671.168 150.909C670.884 151.303 670.486 151.614 669.974 151.841C669.463 152.068 668.868 152.182 668.19 152.182C667.3 152.182 666.563 151.989 665.98 151.602C665.397 151.216 665.027 150.652 664.872 149.909L666.145 149.591C666.266 150.061 666.495 150.413 666.832 150.648C667.173 150.883 667.618 151 668.168 151C668.793 151 669.289 150.867 669.656 150.602C670.027 150.333 670.213 150.011 670.213 149.636C670.213 149.333 670.107 149.08 669.895 148.875C669.683 148.667 669.357 148.511 668.918 148.409L667.463 148.068C666.664 147.879 666.077 147.585 665.702 147.188C665.33 146.786 665.145 146.284 665.145 145.682C665.145 145.189 665.283 144.754 665.56 144.375C665.84 143.996 666.221 143.699 666.702 143.483C667.187 143.267 667.736 143.159 668.349 143.159C669.213 143.159 669.891 143.348 670.384 143.727C670.88 144.106 671.232 144.606 671.44 145.227ZM674.595 152.091C674.315 152.091 674.074 151.991 673.874 151.79C673.673 151.589 673.572 151.348 673.572 151.068C673.572 150.788 673.673 150.547 673.874 150.347C674.074 150.146 674.315 150.045 674.595 150.045C674.875 150.045 675.116 150.146 675.317 150.347C675.518 150.547 675.618 150.788 675.618 151.068C675.618 151.254 675.571 151.424 675.476 151.58C675.385 151.735 675.262 151.86 675.107 151.955C674.955 152.045 674.785 152.091 674.595 152.091ZM679.001 152.091C678.721 152.091 678.481 151.991 678.28 151.79C678.079 151.589 677.979 151.348 677.979 151.068C677.979 150.788 678.079 150.547 678.28 150.347C678.481 150.146 678.721 150.045 679.001 150.045C679.282 150.045 679.522 150.146 679.723 150.347C679.924 150.547 680.024 150.788 680.024 151.068C680.024 151.254 679.977 151.424 679.882 151.58C679.791 151.735 679.668 151.86 679.513 151.955C679.361 152.045 679.191 152.091 679.001 152.091ZM683.408 152.091C683.127 152.091 682.887 151.991 682.686 151.79C682.485 151.589 682.385 151.348 682.385 151.068C682.385 150.788 682.485 150.547 682.686 150.347C682.887 150.146 683.127 150.045 683.408 150.045C683.688 150.045 683.929 150.146 684.129 150.347C684.33 150.547 684.43 150.788 684.43 151.068C684.43 151.254 684.383 151.424 684.288 151.58C684.197 151.735 684.074 151.86 683.919 151.955C683.768 152.045 683.597 152.091 683.408 152.091Z" fill="#9CA3AF"/>
</g>
<defs>
<clipPath id="clip0_3_952">
<path d="M565.184 97.9498H600.784V133.55H565.184V97.9498Z" fill="white"/>
</clipPath>
</defs>
</svg>
