<svg xmlns="http://www.w3.org/2000/svg" width="151" height="20" fill="none"><g clip-path="url(#be-in-crypto_svg__a)"><path fill="#fff" d="M8.506 5.88c-.637-.513-1.434-.778-2.37-.778H0v10.842h6.335c.956 0 1.773-.285 2.43-.855s.996-1.329.996-2.202c0-.627-.18-1.14-.518-1.557a2.72 2.72 0 0 0-1.315-.893l-.1-.038v-.247l.08-.038c.459-.19.837-.493 1.116-.873q.418-.599.418-1.31c0-.855-.318-1.538-.936-2.05M2.59 7.266h2.968c.378 0 .677.114.916.342.22.228.339.494.339.778q0 .428-.359.798-.329.342-.896.342H2.59zm4.143 6.171c-.239.247-.558.38-.936.38H2.59v-2.335h3.207c.378 0 .697.113.936.341a.95.95 0 0 1 .379.76c0 .323-.12.607-.379.854M20.22 7.494V5.102h-8.805v10.842h8.805v-2.355h-6.215v-2.013h5.358V9.356h-5.358V7.494z"></path><path fill="#C9FD35" fill-rule="evenodd" d="M33.326 16.115c0-.323-.279-.589-.617-.589h-2.331c-.498 0-.916-.399-.916-.873V5.349c0-.475.418-.874.916-.874h2.33c.34 0 .618-.266.618-.588v-2.83c0-.322-.279-.588-.617-.588H29.76c-.338 0-.617.266-.617.588v2.298c0 .475-.419.873-.916.873h-2.331c-.339 0-.618.266-.618.589v10.348c0 .323.28.59.618.59h2.33c.498 0 .917.398.917.873v2.297c0 .323.279.589.617.589h2.949c.338 0 .617-.266.617-.589z" clip-rule="evenodd"></path><path fill="#C9FD35" d="M35.08 15.3c0 .265.218.474.497.474h2.75a.48.48 0 0 0 .497-.475V5.406a.48.48 0 0 0-.498-.474h-2.749a.48.48 0 0 0-.498.474z"></path><path fill="#C9FD35" fill-rule="evenodd" d="M53.507 8.463a.48.48 0 0 0-.498-.474h-2.172a.76.76 0 0 1-.717-.456l-1.055-2.317a.5.5 0 0 0-.459-.284h-6.494a.48.48 0 0 0-.498.474v9.912c0 .266.22.475.498.475h2.75a.48.48 0 0 0 .497-.475v-6.36c0-.419.359-.76.797-.76h2.829c.438 0 .797.341.797.76v6.36c0 .266.219.475.498.475h2.749a.48.48 0 0 0 .498-.475zM55.699 19.533h2.948c.338 0 .617-.266.617-.589v-2.297c0-.475.419-.874.917-.874h2.33c.339 0 .618-.266.618-.589V4.836c0-.323-.279-.589-.618-.589h-2.33c-.498 0-.917-.398-.917-.873V1.057c0-.322-.279-.588-.617-.588h-2.948c-.34 0-.618.266-.618.588v2.83c0 .322.279.588.618.588h2.33c.498 0 .917.399.917.874v9.304c0 .474-.419.873-.917.873H55.7c-.34 0-.618.266-.618.589v2.81a.61.61 0 0 0 .618.608" clip-rule="evenodd"></path><path fill="#fff" d="m77.708 5.063-2.81 6.721-2.788-6.722h-3.785v10.862h2.65V8.499l3.167 7.425h1.514l3.167-7.425v7.425h2.65V5.063zM90.156 5.063h-3.068l-4.542 10.86h2.908l.797-2.05h4.641l.817 2.05h3.008zm-3.068 6.683 1.454-3.721 1.494 3.721zM104.518 10.55l-.08-.019v-.19l.04-.038c.737-.494 1.096-1.253 1.096-2.26 0-.949-.359-1.69-1.076-2.202-.717-.513-1.713-.779-2.928-.779h-5.877v10.862h2.65v-3.57h4.163c.498 0 .757.247.757.702v2.849h2.649v-3.323c.02-1.158-.438-1.823-1.394-2.032m-2.012-.76c-.279.228-.677.361-1.155.361h-2.988V7.512h3.008q.687 0 1.135.342c.299.228.458.55.458.95-.02.398-.159.74-.458.986M115.4 9.202h-.18l2.67-4.14h-2.889l-2.629 4.14h-2.032v-4.14h-2.65v10.862h2.65v-4.368h3.984c.498 0 .757.247.757.703v3.646h2.649v-4.273c0-1.614-.757-2.411-2.33-2.43M128.428 7.512v-2.45h-8.824v10.862h8.824v-2.45h-6.175v-1.899h5.319V9.297h-5.319V7.53h6.175zM129.484 5.063v2.449h3.745v8.412h2.65V7.512h3.765v-2.45zM149.9 10.816c-.438-.55-1.096-.93-1.952-1.12l-4.064-.874c-.498-.133-.618-.437-.618-.683 0-.19.06-.323.2-.456.119-.114.318-.171.557-.171h5.777v-2.45h-5.976c-1.076 0-1.912.304-2.53.912-.597.608-.916 1.348-.916 2.203 0 .683.219 1.31.677 1.86.438.551 1.096.93 1.952 1.12l4.104.912c.558.114.657.437.657.684 0 .17-.079.341-.219.493-.139.152-.338.21-.577.21h-6.136v2.449h6.235c1.096 0 1.952-.323 2.55-.95.617-.626.916-1.386.916-2.26.04-.683-.179-1.31-.637-1.88"></path></g><defs><clipPath id="be-in-crypto_svg__a"><path fill="#fff" d="M0 0h151v20H0z"></path></clipPath></defs></svg>