<svg version="1.2" xmlns="http://www.w3.org/2000/svg" viewBox="0 0 375 59" width="500" height="79">
	<title>logo-svg</title>
	<defs>
		<clipPath clipPathUnits="userSpaceOnUse" id="cp1">
			<path d=""/>
		</clipPath>
		<clipPath clipPathUnits="userSpaceOnUse" id="cp2">
			<path d="m10 11h38v38h-38z"/>
		</clipPath>
		<clipPath clipPathUnits="userSpaceOnUse" id="cp3">
			<path d="m10.66 11.32h36.27v36.27h-36.27z"/>
		</clipPath>
		<clipPath clipPathUnits="userSpaceOnUse" id="cp4">
			<path d="m0 0.73h57.71v57.71h-57.71z"/>
		</clipPath>
		<clipPath clipPathUnits="userSpaceOnUse" id="cp5">
			<path d="m28.85 58.44q-1.41 0-2.83-0.14-1.4-0.14-2.8-0.41-1.39-0.28-2.74-0.69-1.36-0.41-2.67-0.96-1.31-0.54-2.56-1.21-1.25-0.67-2.43-1.45-1.17-0.79-2.27-1.69-1.09-0.9-2.1-1.9-1-1-1.9-2.1-0.9-1.1-1.69-2.27-0.79-1.18-1.45-2.43-0.67-1.25-1.21-2.56-0.55-1.31-0.96-2.67-0.41-1.35-0.69-2.75-0.27-1.38-0.41-2.8-0.14-1.41-0.14-2.82 0-1.42 0.14-2.83 0.14-1.41 0.41-2.8 0.28-1.39 0.69-2.75 0.41-1.36 0.96-2.67 0.54-1.31 1.21-2.56 0.66-1.25 1.45-2.43 0.79-1.17 1.69-2.27 0.9-1.09 1.9-2.1 1.01-1 2.1-1.9 1.1-0.9 2.27-1.69 1.18-0.78 2.43-1.45 1.25-0.67 2.56-1.21 1.31-0.54 2.67-0.95 1.35-0.42 2.74-0.69 1.4-0.28 2.8-0.42 1.42-0.14 2.83-0.14 1.42 0 2.83 0.14 1.41 0.14 2.8 0.42 1.39 0.27 2.75 0.69 1.36 0.41 2.66 0.95 1.32 0.54 2.56 1.21 1.26 0.67 2.43 1.45 1.18 0.79 2.28 1.69 1.09 0.9 2.1 1.9 1 1.01 1.9 2.1 0.9 1.1 1.68 2.27 0.79 1.18 1.46 2.43 0.67 1.25 1.21 2.56 0.54 1.31 0.95 2.67 0.42 1.36 0.69 2.75 0.28 1.39 0.42 2.8 0.14 1.41 0.14 2.83 0 1.41-0.14 2.82-0.15 1.41-0.42 2.8-0.28 1.39-0.69 2.75-0.41 1.36-0.96 2.66-0.54 1.31-1.21 2.56-0.67 1.25-1.45 2.43-0.8 1.18-1.69 2.27-0.9 1.1-1.9 2.1-1.01 1-2.1 1.9-1.1 0.9-2.28 1.69-1.17 0.78-2.42 1.45-1.25 0.67-2.56 1.21-1.31 0.55-2.66 0.96-1.36 0.41-2.75 0.69-1.39 0.28-2.8 0.42-1.41 0.14-2.83 0.14zm0-55.78q-1.32 0-2.64 0.13-1.31 0.12-2.61 0.38-1.3 0.26-2.56 0.65-1.27 0.38-2.49 0.89-1.22 0.5-2.39 1.13-1.17 0.62-2.27 1.36-1.1 0.73-2.12 1.57-1.03 0.84-1.96 1.77-0.93 0.94-1.77 1.96-0.84 1.02-1.58 2.13-0.73 1.1-1.36 2.26-0.62 1.17-1.13 2.39-0.5 1.22-0.89 2.49-0.38 1.27-0.64 2.56-0.26 1.3-0.39 2.62-0.13 1.31-0.13 2.64 0 1.32 0.13 2.64 0.13 1.31 0.39 2.61 0.26 1.3 0.64 2.56 0.39 1.27 0.89 2.49 0.51 1.23 1.13 2.39 0.63 1.17 1.36 2.27 0.74 1.1 1.58 2.12 0.84 1.02 1.77 1.96 0.93 0.93 1.96 1.77 1.02 0.84 2.12 1.58 1.1 0.73 2.27 1.36 1.17 0.62 2.39 1.12 1.22 0.51 2.49 0.9 1.26 0.38 2.56 0.64 1.3 0.26 2.61 0.39 1.32 0.13 2.64 0.13 1.33 0 2.64-0.13 1.32-0.13 2.62-0.39 1.3-0.26 2.56-0.64 1.27-0.39 2.49-0.9 1.22-0.5 2.39-1.12 1.16-0.63 2.27-1.36 1.1-0.74 2.12-1.58 1.02-0.84 1.95-1.77 0.94-0.94 1.78-1.96 0.84-1.02 1.58-2.12 0.73-1.1 1.36-2.27 0.62-1.16 1.12-2.39 0.51-1.22 0.89-2.49 0.39-1.26 0.65-2.56 0.25-1.3 0.38-2.61 0.13-1.32 0.14-2.64-0.01-1.33-0.14-2.64-0.13-1.32-0.39-2.61-0.26-1.3-0.64-2.57-0.39-1.26-0.89-2.48-0.51-1.23-1.14-2.39-0.62-1.17-1.36-2.27-0.73-1.1-1.57-2.12-0.84-1.02-1.77-1.96-0.94-0.93-1.96-1.77-1.03-0.84-2.12-1.58-1.1-0.73-2.27-1.36-1.16-0.62-2.38-1.13-1.23-0.5-2.49-0.89-1.27-0.38-2.56-0.64-1.3-0.26-2.62-0.39-1.32-0.13-2.64-0.13z"/>
		</clipPath>
		<linearGradient id="g1" x2="1" gradientUnits="userSpaceOnUse" gradientTransform="matrix(0,-57.707,57.707,0,28.854,58.439)">
			<stop offset="0" stop-color="#006ef0"/>
			<stop offset=".004" stop-color="#006ff0"/>
			<stop offset=".008" stop-color="#006ff0"/>
			<stop offset=".012" stop-color="#0070f0"/>
			<stop offset=".016" stop-color="#0070f0"/>
			<stop offset=".02" stop-color="#0071f0"/>
			<stop offset=".023" stop-color="#0071f0"/>
			<stop offset=".027" stop-color="#0072f0"/>
			<stop offset=".031" stop-color="#0072f0"/>
			<stop offset=".035" stop-color="#0073f0"/>
			<stop offset=".039" stop-color="#0073f0"/>
			<stop offset=".043" stop-color="#0074f0"/>
			<stop offset=".047" stop-color="#0074f0"/>
			<stop offset=".051" stop-color="#0075f0"/>
			<stop offset=".055" stop-color="#0075f0"/>
			<stop offset=".059" stop-color="#0076f0"/>
			<stop offset=".063" stop-color="#0076f0"/>
			<stop offset=".066" stop-color="#0077f0"/>
			<stop offset=".07" stop-color="#0077f0"/>
			<stop offset=".074" stop-color="#0078f0"/>
			<stop offset=".078" stop-color="#0078f0"/>
			<stop offset=".082" stop-color="#0079f0"/>
			<stop offset=".086" stop-color="#0079f0"/>
			<stop offset=".09" stop-color="#007af0"/>
			<stop offset=".094" stop-color="#007af0"/>
			<stop offset=".098" stop-color="#007bf0"/>
			<stop offset=".102" stop-color="#007bf0"/>
			<stop offset=".105" stop-color="#007cf0"/>
			<stop offset=".109" stop-color="#007cf0"/>
			<stop offset=".113" stop-color="#007df0"/>
			<stop offset=".117" stop-color="#007df0"/>
			<stop offset=".121" stop-color="#007ef0"/>
			<stop offset=".125" stop-color="#007ef0"/>
			<stop offset=".129" stop-color="#007ff0"/>
			<stop offset=".133" stop-color="#007ff0"/>
			<stop offset=".137" stop-color="#0080f0"/>
			<stop offset=".141" stop-color="#0080f0"/>
			<stop offset=".145" stop-color="#0081f0"/>
			<stop offset=".148" stop-color="#0081f0"/>
			<stop offset=".152" stop-color="#0082f0"/>
			<stop offset=".156" stop-color="#0082f0"/>
			<stop offset=".16" stop-color="#0083f0"/>
			<stop offset=".164" stop-color="#0083f0"/>
			<stop offset=".168" stop-color="#0084f0"/>
			<stop offset=".172" stop-color="#0085f0"/>
			<stop offset=".176" stop-color="#0085f0"/>
			<stop offset=".18" stop-color="#0086f0"/>
			<stop offset=".184" stop-color="#0086f0"/>
			<stop offset=".188" stop-color="#0087f0"/>
			<stop offset=".191" stop-color="#0087f0"/>
			<stop offset=".195" stop-color="#0088f0"/>
			<stop offset=".199" stop-color="#0088f0"/>
			<stop offset=".203" stop-color="#0089f0"/>
			<stop offset=".207" stop-color="#0089f0"/>
			<stop offset=".211" stop-color="#008af0"/>
			<stop offset=".215" stop-color="#008af0"/>
			<stop offset=".219" stop-color="#008bf0"/>
			<stop offset=".223" stop-color="#008bf0"/>
			<stop offset=".227" stop-color="#008cf0"/>
			<stop offset=".23" stop-color="#008cf0"/>
			<stop offset=".234" stop-color="#008df0"/>
			<stop offset=".238" stop-color="#008df0"/>
			<stop offset=".242" stop-color="#008ef0"/>
			<stop offset=".246" stop-color="#008ef0"/>
			<stop offset=".25" stop-color="#008ff0"/>
			<stop offset=".254" stop-color="#008ff0"/>
			<stop offset=".258" stop-color="#0090f0"/>
			<stop offset=".262" stop-color="#0090f0"/>
			<stop offset=".266" stop-color="#0091f0"/>
			<stop offset=".27" stop-color="#0091f0"/>
			<stop offset=".273" stop-color="#0092f0"/>
			<stop offset=".277" stop-color="#0092f0"/>
			<stop offset=".281" stop-color="#0093f0"/>
			<stop offset=".285" stop-color="#0093f0"/>
			<stop offset=".289" stop-color="#0094f0"/>
			<stop offset=".293" stop-color="#0094f0"/>
			<stop offset=".297" stop-color="#0095f0"/>
			<stop offset=".301" stop-color="#0095f0"/>
			<stop offset=".305" stop-color="#0096f0"/>
			<stop offset=".309" stop-color="#0096f0"/>
			<stop offset=".313" stop-color="#0097f0"/>
			<stop offset=".316" stop-color="#0097f0"/>
			<stop offset=".32" stop-color="#0098f0"/>
			<stop offset=".324" stop-color="#0098f0"/>
			<stop offset=".328" stop-color="#0099f0"/>
			<stop offset=".332" stop-color="#0099f0"/>
			<stop offset=".336" stop-color="#009af0"/>
			<stop offset=".34" stop-color="#009af0"/>
			<stop offset=".344" stop-color="#009bf0"/>
			<stop offset=".348" stop-color="#009cf0"/>
			<stop offset=".352" stop-color="#009cf0"/>
			<stop offset=".355" stop-color="#009df0"/>
			<stop offset=".359" stop-color="#009df0"/>
			<stop offset=".363" stop-color="#009ef0"/>
			<stop offset=".367" stop-color="#009ef0"/>
			<stop offset=".371" stop-color="#009ff0"/>
			<stop offset=".375" stop-color="#009ff0"/>
			<stop offset=".379" stop-color="#00a0f0"/>
			<stop offset=".383" stop-color="#00a0f0"/>
			<stop offset=".387" stop-color="#00a1f0"/>
			<stop offset=".391" stop-color="#00a1f0"/>
			<stop offset=".395" stop-color="#00a2f0"/>
			<stop offset=".398" stop-color="#00a2f0"/>
			<stop offset=".402" stop-color="#00a3f0"/>
			<stop offset=".406" stop-color="#00a3f0"/>
			<stop offset=".41" stop-color="#00a4f0"/>
			<stop offset=".414" stop-color="#00a4f0"/>
			<stop offset=".418" stop-color="#00a5f0"/>
			<stop offset=".422" stop-color="#00a5f0"/>
			<stop offset=".426" stop-color="#00a6f0"/>
			<stop offset=".43" stop-color="#00a6f0"/>
			<stop offset=".434" stop-color="#00a7f0"/>
			<stop offset=".438" stop-color="#00a7f0"/>
			<stop offset=".441" stop-color="#00a8f0"/>
			<stop offset=".445" stop-color="#00a8f0"/>
			<stop offset=".449" stop-color="#00a9f0"/>
			<stop offset=".453" stop-color="#00a9f0"/>
			<stop offset=".457" stop-color="#00aaf0"/>
			<stop offset=".461" stop-color="#00aaf0"/>
			<stop offset=".465" stop-color="#00abf0"/>
			<stop offset=".469" stop-color="#00abf0"/>
			<stop offset=".473" stop-color="#00acf0"/>
			<stop offset=".477" stop-color="#00acf0"/>
			<stop offset=".48" stop-color="#00adf0"/>
			<stop offset=".484" stop-color="#00adf0"/>
			<stop offset=".488" stop-color="#00aef0"/>
			<stop offset=".492" stop-color="#00aef0"/>
			<stop offset=".496" stop-color="#00aff0"/>
			<stop offset=".5" stop-color="#00aff0"/>
			<stop offset=".504" stop-color="#00b0f0"/>
			<stop offset=".508" stop-color="#00b0f0"/>
			<stop offset=".512" stop-color="#00b1f0"/>
			<stop offset=".516" stop-color="#00b1f0"/>
			<stop offset=".52" stop-color="#00b2f0"/>
			<stop offset=".523" stop-color="#00b2f0"/>
			<stop offset=".527" stop-color="#00b3f0"/>
			<stop offset=".531" stop-color="#00b4f0"/>
			<stop offset=".535" stop-color="#00b4f0"/>
			<stop offset=".539" stop-color="#00b5f0"/>
			<stop offset=".543" stop-color="#00b5f0"/>
			<stop offset=".547" stop-color="#00b6f0"/>
			<stop offset=".551" stop-color="#00b6f0"/>
			<stop offset=".555" stop-color="#00b7f0"/>
			<stop offset=".559" stop-color="#00b7f0"/>
			<stop offset=".563" stop-color="#00b8f0"/>
			<stop offset=".566" stop-color="#00b8f0"/>
			<stop offset=".57" stop-color="#00b9f0"/>
			<stop offset=".574" stop-color="#00b9f0"/>
			<stop offset=".578" stop-color="#00baf0"/>
			<stop offset=".582" stop-color="#00baf0"/>
			<stop offset=".586" stop-color="#00bbf0"/>
			<stop offset=".59" stop-color="#00bbf0"/>
			<stop offset=".594" stop-color="#00bcf0"/>
			<stop offset=".598" stop-color="#00bcf0"/>
			<stop offset=".602" stop-color="#00bdf0"/>
			<stop offset=".605" stop-color="#00bdf0"/>
			<stop offset=".609" stop-color="#00bef0"/>
			<stop offset=".613" stop-color="#00bef0"/>
			<stop offset=".617" stop-color="#00bff0"/>
			<stop offset=".621" stop-color="#00bff0"/>
			<stop offset=".625" stop-color="#00c0f0"/>
			<stop offset=".629" stop-color="#00c0f0"/>
			<stop offset=".633" stop-color="#00c1f0"/>
			<stop offset=".637" stop-color="#00c1f0"/>
			<stop offset=".641" stop-color="#00c2f0"/>
			<stop offset=".645" stop-color="#00c2f0"/>
			<stop offset=".648" stop-color="#00c3f0"/>
			<stop offset=".652" stop-color="#00c3f0"/>
			<stop offset=".656" stop-color="#00c4f0"/>
			<stop offset=".66" stop-color="#00c4f0"/>
			<stop offset=".664" stop-color="#00c5f0"/>
			<stop offset=".668" stop-color="#00c5f0"/>
			<stop offset=".672" stop-color="#00c6f0"/>
			<stop offset=".676" stop-color="#00c6f0"/>
			<stop offset=".68" stop-color="#00c7f0"/>
			<stop offset=".684" stop-color="#00c7f0"/>
			<stop offset=".688" stop-color="#00c8f0"/>
			<stop offset=".691" stop-color="#00c8f0"/>
			<stop offset=".695" stop-color="#00c9f0"/>
			<stop offset=".699" stop-color="#00c9f0"/>
			<stop offset=".703" stop-color="#00caf0"/>
			<stop offset=".707" stop-color="#00cbf0"/>
			<stop offset=".711" stop-color="#00cbf0"/>
			<stop offset=".715" stop-color="#00ccf0"/>
			<stop offset=".719" stop-color="#00ccf0"/>
			<stop offset=".723" stop-color="#00cdf0"/>
			<stop offset=".727" stop-color="#00cdf0"/>
			<stop offset=".73" stop-color="#00cef0"/>
			<stop offset=".734" stop-color="#00cef0"/>
			<stop offset=".738" stop-color="#00cff0"/>
			<stop offset=".742" stop-color="#00cff0"/>
			<stop offset=".746" stop-color="#00d0f0"/>
			<stop offset=".75" stop-color="#00d0f0"/>
			<stop offset=".754" stop-color="#00d1f0"/>
			<stop offset=".758" stop-color="#00d1f0"/>
			<stop offset=".762" stop-color="#00d2f0"/>
			<stop offset=".766" stop-color="#00d2f0"/>
			<stop offset=".77" stop-color="#00d3f0"/>
			<stop offset=".773" stop-color="#00d3f0"/>
			<stop offset=".777" stop-color="#00d4f0"/>
			<stop offset=".781" stop-color="#00d4f0"/>
			<stop offset=".785" stop-color="#00d5f0"/>
			<stop offset=".789" stop-color="#00d5f0"/>
			<stop offset=".793" stop-color="#00d6f0"/>
			<stop offset=".797" stop-color="#00d6f0"/>
			<stop offset=".801" stop-color="#00d7f0"/>
			<stop offset=".805" stop-color="#00d7f0"/>
			<stop offset=".809" stop-color="#00d8f0"/>
			<stop offset=".813" stop-color="#00d8f0"/>
			<stop offset=".816" stop-color="#00d9f0"/>
			<stop offset=".82" stop-color="#00d9f0"/>
			<stop offset=".824" stop-color="#00daf0"/>
			<stop offset=".828" stop-color="#00daf0"/>
			<stop offset=".832" stop-color="#00dbf0"/>
			<stop offset=".836" stop-color="#00dbf0"/>
			<stop offset=".84" stop-color="#00dcf0"/>
			<stop offset=".844" stop-color="#00dcf0"/>
			<stop offset=".848" stop-color="#00ddf0"/>
			<stop offset=".852" stop-color="#00ddf0"/>
			<stop offset=".855" stop-color="#00def0"/>
			<stop offset=".859" stop-color="#00def0"/>
			<stop offset=".863" stop-color="#00dff0"/>
			<stop offset=".867" stop-color="#00dff0"/>
			<stop offset=".871" stop-color="#00e0f0"/>
			<stop offset=".875" stop-color="#00e0f0"/>
			<stop offset=".879" stop-color="#00e1f0"/>
			<stop offset=".883" stop-color="#00e2f0"/>
			<stop offset=".887" stop-color="#00e2f0"/>
			<stop offset=".891" stop-color="#00e3f0"/>
			<stop offset=".895" stop-color="#00e3f0"/>
			<stop offset=".898" stop-color="#00e4f0"/>
			<stop offset=".902" stop-color="#00e4f0"/>
			<stop offset=".906" stop-color="#00e5f0"/>
			<stop offset=".91" stop-color="#00e5f0"/>
			<stop offset=".914" stop-color="#00e6f0"/>
			<stop offset=".918" stop-color="#00e6f0"/>
			<stop offset=".922" stop-color="#00e7f0"/>
			<stop offset=".938" stop-color="#00e7f0"/>
			<stop offset="1" stop-color="#00e7f0"/>
		</linearGradient>
		<clipPath clipPathUnits="userSpaceOnUse" id="cp6">
			<path d="m3 4h51v51h-51z"/>
		</clipPath>
		<clipPath clipPathUnits="userSpaceOnUse" id="cp7">
			<path d="m28.85 54.59q-1.22 0-2.45-0.12-1.22-0.12-2.42-0.36-1.21-0.24-2.39-0.59-1.17-0.36-2.3-0.83-1.14-0.47-2.22-1.05-1.09-0.58-2.11-1.26-1.02-0.68-1.97-1.46-0.95-0.78-1.82-1.65-0.87-0.87-1.65-1.82-0.78-0.95-1.46-1.97-0.68-1.02-1.26-2.11-0.58-1.08-1.05-2.21-0.47-1.14-0.82-2.32-0.36-1.17-0.6-2.38-0.24-1.2-0.36-2.42-0.12-1.22-0.12-2.45 0-1.23 0.12-2.45 0.12-1.23 0.36-2.43 0.24-1.21 0.6-2.38 0.35-1.18 0.82-2.31 0.47-1.14 1.05-2.22 0.58-1.09 1.26-2.11 0.68-1.02 1.46-1.97 0.78-0.95 1.65-1.82 0.87-0.87 1.82-1.65 0.95-0.77 1.97-1.46 1.02-0.68 2.11-1.26 1.08-0.58 2.22-1.05 1.13-0.47 2.3-0.82 1.18-0.36 2.39-0.6 1.2-0.24 2.42-0.36 1.23-0.12 2.45-0.12 1.23 0 2.45 0.12 1.23 0.12 2.43 0.36 1.21 0.24 2.38 0.6 1.18 0.35 2.31 0.82 1.14 0.47 2.22 1.05 1.09 0.58 2.11 1.26 1.02 0.69 1.97 1.46 0.95 0.78 1.82 1.65 0.86 0.87 1.64 1.82 0.78 0.95 1.46 1.97 0.69 1.02 1.27 2.11 0.58 1.08 1.05 2.22 0.47 1.13 0.82 2.31 0.36 1.17 0.6 2.38 0.24 1.2 0.36 2.43 0.12 1.22 0.12 2.45 0 1.23-0.12 2.45-0.12 1.22-0.37 2.42-0.24 1.21-0.59 2.38-0.36 1.18-0.83 2.31-0.47 1.13-1.05 2.22-0.58 1.08-1.26 2.1-0.69 1.02-1.46 1.97-0.78 0.95-1.65 1.82-0.87 0.87-1.82 1.65-0.95 0.78-1.97 1.46-1.02 0.68-2.1 1.26-1.09 0.58-2.22 1.05-1.14 0.47-2.31 0.83-1.18 0.36-2.38 0.6-1.21 0.24-2.43 0.36-1.22 0.12-2.45 0.12zm0-48.09q-1.13 0-2.26 0.11-1.13 0.12-2.24 0.34-1.11 0.22-2.2 0.55-1.08 0.33-2.13 0.76-1.05 0.43-2.05 0.97-1 0.53-1.94 1.16-0.94 0.63-1.82 1.35-0.88 0.72-1.68 1.53-0.8 0.8-1.52 1.67-0.72 0.88-1.35 1.82-0.63 0.95-1.16 1.94-0.54 1.01-0.97 2.05-0.44 1.05-0.76 2.14-0.33 1.08-0.56 2.19-0.22 1.11-0.33 2.24-0.11 1.13-0.11 2.27 0 1.13 0.11 2.26 0.11 1.13 0.33 2.24 0.23 1.11 0.56 2.2 0.32 1.08 0.76 2.13 0.43 1.05 0.97 2.05 0.53 1 1.16 1.94 0.63 0.94 1.35 1.82 0.72 0.88 1.52 1.68 0.8 0.8 1.68 1.52 0.88 0.72 1.82 1.35 0.94 0.63 1.94 1.16 1 0.54 2.05 0.97 1.05 0.44 2.13 0.77 1.09 0.32 2.2 0.55 1.11 0.22 2.24 0.33 1.13 0.11 2.26 0.11 1.14 0 2.27-0.11 1.13-0.11 2.24-0.33 1.11-0.23 2.19-0.55 1.09-0.33 2.14-0.77 1.04-0.43 2.04-0.97 1.01-0.53 1.95-1.16 0.94-0.63 1.82-1.35 0.87-0.72 1.68-1.52 0.8-0.8 1.52-1.68 0.72-0.88 1.35-1.82 0.63-0.94 1.16-1.94 0.54-1 0.97-2.05 0.43-1.05 0.76-2.13 0.33-1.09 0.55-2.2 0.22-1.11 0.33-2.24 0.12-1.13 0.12-2.26-0.01-1.13-0.12-2.27-0.11-1.13-0.33-2.23-0.22-1.12-0.55-2.2-0.34-1.09-0.77-2.13-0.43-1.05-0.97-2.05-0.53-1-1.16-1.94-0.63-0.94-1.35-1.82-0.72-0.88-1.52-1.68-0.8-0.8-1.68-1.52-0.87-0.72-1.82-1.35-0.94-0.63-1.94-1.16-1-0.54-2.05-0.97-1.05-0.44-2.13-0.77-1.08-0.33-2.19-0.55-1.12-0.22-2.25-0.33-1.12-0.12-2.26-0.12z"/>
		</clipPath>
		<linearGradient id="g2" x2="1" gradientUnits="userSpaceOnUse" gradientTransform="matrix(0,-50.013,50.009,0,28.854,54.592)">
			<stop offset="0" stop-color="#0077f0"/>
			<stop offset=".008" stop-color="#0077f0"/>
			<stop offset=".016" stop-color="#0078f0"/>
			<stop offset=".023" stop-color="#0079f0"/>
			<stop offset=".031" stop-color="#007af0"/>
			<stop offset=".039" stop-color="#007bf0"/>
			<stop offset=".047" stop-color="#007cf0"/>
			<stop offset=".055" stop-color="#007df0"/>
			<stop offset=".063" stop-color="#007df0"/>
			<stop offset=".07" stop-color="#007ef0"/>
			<stop offset=".078" stop-color="#007ff0"/>
			<stop offset=".086" stop-color="#0080f0"/>
			<stop offset=".094" stop-color="#0081f0"/>
			<stop offset=".102" stop-color="#0082f0"/>
			<stop offset=".109" stop-color="#0083f0"/>
			<stop offset=".117" stop-color="#0084f0"/>
			<stop offset=".125" stop-color="#0084f0"/>
			<stop offset=".133" stop-color="#0085f0"/>
			<stop offset=".141" stop-color="#0086f0"/>
			<stop offset=".148" stop-color="#0087f0"/>
			<stop offset=".156" stop-color="#0088f0"/>
			<stop offset=".164" stop-color="#0089f0"/>
			<stop offset=".172" stop-color="#008af0"/>
			<stop offset=".18" stop-color="#008bf0"/>
			<stop offset=".188" stop-color="#008cf0"/>
			<stop offset=".195" stop-color="#008cf0"/>
			<stop offset=".203" stop-color="#008df0"/>
			<stop offset=".211" stop-color="#008ef0"/>
			<stop offset=".219" stop-color="#008ff0"/>
			<stop offset=".227" stop-color="#0090f0"/>
			<stop offset=".234" stop-color="#0091f0"/>
			<stop offset=".242" stop-color="#0092f0"/>
			<stop offset=".25" stop-color="#0093f0"/>
			<stop offset=".258" stop-color="#0094f0"/>
			<stop offset=".266" stop-color="#0094f0"/>
			<stop offset=".273" stop-color="#0095f0"/>
			<stop offset=".281" stop-color="#0096f0"/>
			<stop offset=".289" stop-color="#0097f0"/>
			<stop offset=".297" stop-color="#0098f0"/>
			<stop offset=".305" stop-color="#0099f0"/>
			<stop offset=".313" stop-color="#009af0"/>
			<stop offset=".32" stop-color="#009bf0"/>
			<stop offset=".328" stop-color="#009cf0"/>
			<stop offset=".336" stop-color="#009cf0"/>
			<stop offset=".344" stop-color="#009df0"/>
			<stop offset=".352" stop-color="#009ef0"/>
			<stop offset=".359" stop-color="#009ff0"/>
			<stop offset=".367" stop-color="#00a0f0"/>
			<stop offset=".375" stop-color="#00a1f0"/>
			<stop offset=".383" stop-color="#00a2f0"/>
			<stop offset=".391" stop-color="#00a3f0"/>
			<stop offset=".398" stop-color="#00a3f0"/>
			<stop offset=".406" stop-color="#00a4f0"/>
			<stop offset=".414" stop-color="#00a5f0"/>
			<stop offset=".422" stop-color="#00a6f0"/>
			<stop offset=".43" stop-color="#00a7f0"/>
			<stop offset=".438" stop-color="#00a8f0"/>
			<stop offset=".445" stop-color="#00a9f0"/>
			<stop offset=".453" stop-color="#00aaf0"/>
			<stop offset=".461" stop-color="#00abf0"/>
			<stop offset=".469" stop-color="#00abf0"/>
			<stop offset=".477" stop-color="#00acf0"/>
			<stop offset=".484" stop-color="#00adf0"/>
			<stop offset=".492" stop-color="#00aef0"/>
			<stop offset=".5" stop-color="#00aff0"/>
			<stop offset=".508" stop-color="#00b0f0"/>
			<stop offset=".516" stop-color="#00b1f0"/>
			<stop offset=".523" stop-color="#00b2f0"/>
			<stop offset=".531" stop-color="#00b3f0"/>
			<stop offset=".539" stop-color="#00b3f0"/>
			<stop offset=".547" stop-color="#00b4f0"/>
			<stop offset=".555" stop-color="#00b5f0"/>
			<stop offset=".563" stop-color="#00b6f0"/>
			<stop offset=".57" stop-color="#00b7f0"/>
			<stop offset=".578" stop-color="#00b8f0"/>
			<stop offset=".586" stop-color="#00b9f0"/>
			<stop offset=".594" stop-color="#00baf0"/>
			<stop offset=".602" stop-color="#00bbf0"/>
			<stop offset=".609" stop-color="#00bbf0"/>
			<stop offset=".617" stop-color="#00bcf0"/>
			<stop offset=".625" stop-color="#00bdf0"/>
			<stop offset=".633" stop-color="#00bef0"/>
			<stop offset=".641" stop-color="#00bff0"/>
			<stop offset=".648" stop-color="#00c0f0"/>
			<stop offset=".656" stop-color="#00c1f0"/>
			<stop offset=".664" stop-color="#00c2f0"/>
			<stop offset=".672" stop-color="#00c2f0"/>
			<stop offset=".68" stop-color="#00c3f0"/>
			<stop offset=".688" stop-color="#00c4f0"/>
			<stop offset=".695" stop-color="#00c5f0"/>
			<stop offset=".703" stop-color="#00c6f0"/>
			<stop offset=".711" stop-color="#00c7f0"/>
			<stop offset=".719" stop-color="#00c8f0"/>
			<stop offset=".727" stop-color="#00c9f0"/>
			<stop offset=".734" stop-color="#00caf0"/>
			<stop offset=".742" stop-color="#00caf0"/>
			<stop offset=".75" stop-color="#00cbf0"/>
			<stop offset=".758" stop-color="#00ccf0"/>
			<stop offset=".766" stop-color="#00cdf0"/>
			<stop offset=".773" stop-color="#00cef0"/>
			<stop offset=".781" stop-color="#00cff0"/>
			<stop offset=".789" stop-color="#00d0f0"/>
			<stop offset=".797" stop-color="#00d1f0"/>
			<stop offset=".805" stop-color="#00d2f0"/>
			<stop offset=".813" stop-color="#00d2f0"/>
			<stop offset=".82" stop-color="#00d3f0"/>
			<stop offset=".828" stop-color="#00d4f0"/>
			<stop offset=".836" stop-color="#00d5f0"/>
			<stop offset=".844" stop-color="#00d6f0"/>
			<stop offset=".852" stop-color="#00d7f0"/>
			<stop offset=".859" stop-color="#00d8f0"/>
			<stop offset=".867" stop-color="#00d9f0"/>
			<stop offset=".875" stop-color="#00d9f0"/>
			<stop offset=".883" stop-color="#00daf0"/>
			<stop offset=".891" stop-color="#00dbf0"/>
			<stop offset=".898" stop-color="#00dcf0"/>
			<stop offset=".906" stop-color="#00ddf0"/>
			<stop offset=".914" stop-color="#00def0"/>
			<stop offset=".922" stop-color="#00dff0"/>
			<stop offset=".93" stop-color="#00e0f0"/>
			<stop offset=".938" stop-color="#00e1f0"/>
			<stop offset=".945" stop-color="#00e1f0"/>
			<stop offset=".953" stop-color="#00e2f0"/>
			<stop offset=".961" stop-color="#00e3f0"/>
			<stop offset=".969" stop-color="#00e4f0"/>
			<stop offset=".977" stop-color="#00e5f0"/>
			<stop offset=".984" stop-color="#00e6f0"/>
			<stop offset="1" stop-color="#00e7f0"/>
		</linearGradient>
		<clipPath clipPathUnits="userSpaceOnUse" id="cp8">
			<path d="m14 34h30v9h-30z"/>
		</clipPath>
		<clipPath clipPathUnits="userSpaceOnUse" id="cp9">
			<path d="m37.51 42.09h-22.12q-0.61 0-0.87-0.55-0.26-0.56 0.13-1.03l4.81-5.77q0.29-0.34 0.74-0.35h22.12q0.61 0 0.87 0.56 0.26 0.55-0.13 1.02l-4.81 5.77q-0.29 0.35-0.74 0.35zm-20.07-1.93h19.62l3.21-3.84h-19.62z"/>
		</clipPath>
		<linearGradient id="g3" x2="1" gradientUnits="userSpaceOnUse" gradientTransform="matrix(0,-7.695,29.017,0,28.854,42.089)">
			<stop offset="0" stop-color="#0093f0"/>
			<stop offset=".031" stop-color="#0093f0"/>
			<stop offset=".063" stop-color="#0094f0"/>
			<stop offset=".094" stop-color="#0094f0"/>
			<stop offset=".125" stop-color="#0095f0"/>
			<stop offset=".156" stop-color="#0096f0"/>
			<stop offset=".188" stop-color="#0096f0"/>
			<stop offset=".219" stop-color="#0097f0"/>
			<stop offset=".25" stop-color="#0097f0"/>
			<stop offset=".281" stop-color="#0098f0"/>
			<stop offset=".313" stop-color="#0098f0"/>
			<stop offset=".344" stop-color="#0099f0"/>
			<stop offset=".375" stop-color="#0099f0"/>
			<stop offset=".406" stop-color="#009af0"/>
			<stop offset=".438" stop-color="#009af0"/>
			<stop offset=".469" stop-color="#009bf0"/>
			<stop offset=".5" stop-color="#009cf0"/>
			<stop offset=".531" stop-color="#009cf0"/>
			<stop offset=".563" stop-color="#009df0"/>
			<stop offset=".594" stop-color="#009df0"/>
			<stop offset=".625" stop-color="#009ef0"/>
			<stop offset=".656" stop-color="#009ef0"/>
			<stop offset=".688" stop-color="#009ff0"/>
			<stop offset=".719" stop-color="#009ff0"/>
			<stop offset=".75" stop-color="#00a0f0"/>
			<stop offset=".781" stop-color="#00a0f0"/>
			<stop offset=".813" stop-color="#00a1f0"/>
			<stop offset=".844" stop-color="#00a2f0"/>
			<stop offset=".875" stop-color="#00a2f0"/>
			<stop offset=".906" stop-color="#00a3f0"/>
			<stop offset=".938" stop-color="#00a3f0"/>
			<stop offset=".969" stop-color="#00a4f0"/>
			<stop offset="1" stop-color="#00a4f0"/>
		</linearGradient>
		<clipPath clipPathUnits="userSpaceOnUse" id="cp10">
			<path d="m14 25h30v9h-30z"/>
		</clipPath>
		<clipPath clipPathUnits="userSpaceOnUse" id="cp11">
			<path d="m42.32 33.43h-22.12q-0.45 0-0.74-0.34l-4.81-5.77q-0.39-0.47-0.13-1.03 0.26-0.55 0.87-0.55h22.12q0.45 0 0.74 0.35l4.81 5.77q0.39 0.47 0.13 1.02-0.26 0.55-0.87 0.55zm-21.67-1.92h19.62l-3.21-3.85h-19.62z"/>
		</clipPath>
		<linearGradient id="g4" x2="1" gradientUnits="userSpaceOnUse" gradientTransform="matrix(0,-7.695,29.017,0,28.854,33.433)">
			<stop offset="0" stop-color="#00a7f0"/>
			<stop offset=".031" stop-color="#00a7f0"/>
			<stop offset=".063" stop-color="#00a8f0"/>
			<stop offset=".094" stop-color="#00a8f0"/>
			<stop offset=".125" stop-color="#00a9f0"/>
			<stop offset=".156" stop-color="#00a9f0"/>
			<stop offset=".188" stop-color="#00aaf0"/>
			<stop offset=".219" stop-color="#00aaf0"/>
			<stop offset=".25" stop-color="#00abf0"/>
			<stop offset=".281" stop-color="#00abf0"/>
			<stop offset=".313" stop-color="#00acf0"/>
			<stop offset=".344" stop-color="#00acf0"/>
			<stop offset=".375" stop-color="#00adf0"/>
			<stop offset=".406" stop-color="#00aef0"/>
			<stop offset=".438" stop-color="#00aef0"/>
			<stop offset=".469" stop-color="#00aff0"/>
			<stop offset=".5" stop-color="#00aff0"/>
			<stop offset=".531" stop-color="#00b0f0"/>
			<stop offset=".563" stop-color="#00b0f0"/>
			<stop offset=".594" stop-color="#00b1f0"/>
			<stop offset=".625" stop-color="#00b1f0"/>
			<stop offset=".656" stop-color="#00b2f0"/>
			<stop offset=".688" stop-color="#00b2f0"/>
			<stop offset=".719" stop-color="#00b3f0"/>
			<stop offset=".75" stop-color="#00b4f0"/>
			<stop offset=".781" stop-color="#00b4f0"/>
			<stop offset=".813" stop-color="#00b5f0"/>
			<stop offset=".844" stop-color="#00b5f0"/>
			<stop offset=".875" stop-color="#00b6f0"/>
			<stop offset=".906" stop-color="#00b6f0"/>
			<stop offset=".938" stop-color="#00b7f0"/>
			<stop offset=".969" stop-color="#00b7f0"/>
			<stop offset="1" stop-color="#00b8f0"/>
		</linearGradient>
		<clipPath clipPathUnits="userSpaceOnUse" id="cp12">
			<path d="m14 17h30v8h-30z"/>
		</clipPath>
		<clipPath clipPathUnits="userSpaceOnUse" id="cp13">
			<path d="m37.51 24.78h-22.12q-0.61 0-0.87-0.56-0.26-0.55 0.13-1.02l4.81-5.77q0.29-0.35 0.74-0.35h22.12q0.61 0 0.87 0.56 0.26 0.55-0.13 1.02l-4.81 5.77q-0.29 0.35-0.74 0.35zm-20.07-1.93h19.62l3.21-3.84h-19.62z"/>
		</clipPath>
		<linearGradient id="g5" x2="1" gradientUnits="userSpaceOnUse" gradientTransform="matrix(0,-7.695,29.017,0,28.854,24.777)">
			<stop offset="0" stop-color="#00baf0"/>
			<stop offset=".031" stop-color="#00bbf0"/>
			<stop offset=".063" stop-color="#00bbf0"/>
			<stop offset=".094" stop-color="#00bcf0"/>
			<stop offset=".125" stop-color="#00bcf0"/>
			<stop offset=".156" stop-color="#00bdf0"/>
			<stop offset=".188" stop-color="#00bdf0"/>
			<stop offset=".219" stop-color="#00bef0"/>
			<stop offset=".25" stop-color="#00bef0"/>
			<stop offset=".281" stop-color="#00bff0"/>
			<stop offset=".313" stop-color="#00c0f0"/>
			<stop offset=".344" stop-color="#00c0f0"/>
			<stop offset=".375" stop-color="#00c1f0"/>
			<stop offset=".406" stop-color="#00c1f0"/>
			<stop offset=".438" stop-color="#00c2f0"/>
			<stop offset=".469" stop-color="#00c2f0"/>
			<stop offset=".5" stop-color="#00c3f0"/>
			<stop offset=".531" stop-color="#00c3f0"/>
			<stop offset=".563" stop-color="#00c4f0"/>
			<stop offset=".594" stop-color="#00c4f0"/>
			<stop offset=".625" stop-color="#00c5f0"/>
			<stop offset=".656" stop-color="#00c6f0"/>
			<stop offset=".688" stop-color="#00c6f0"/>
			<stop offset=".719" stop-color="#00c7f0"/>
			<stop offset=".75" stop-color="#00c7f0"/>
			<stop offset=".781" stop-color="#00c8f0"/>
			<stop offset=".813" stop-color="#00c8f0"/>
			<stop offset=".844" stop-color="#00c9f0"/>
			<stop offset=".875" stop-color="#00c9f0"/>
			<stop offset=".906" stop-color="#00caf0"/>
			<stop offset=".938" stop-color="#00caf0"/>
			<stop offset=".969" stop-color="#00cbf0"/>
			<stop offset="1" stop-color="#00cbf0"/>
		</linearGradient>
	</defs>
	<style>
		.s0 { fill: #c1ff72 } 
		.s1 { fill: url(#g1) } 
		.s2 { fill: url(#g2) } 
		.s3 { fill: url(#g3) } 
		.s4 { fill: url(#g4) } 
		.s5 { fill: url(#g5) } 
		.s6 { fill: #ffffff } 
	</style>
	<g id="Clip-Path" clip-path="url(#cp1)">
		<g id="Layer">
			<g id="Layer">
				<g id="Clip-Path" clip-path="url(#cp2)">
					<g id="Layer">
						<g id="Clip-Path" clip-path="url(#cp3)">
							<g id="Layer">
								<path id="Layer" fill-rule="evenodd" class="s0" d="m22.1 37.4q0.2-0.2 0.5-0.4c-0.1 0.4-0.2 0.9-0.3 1.2 0 0.4-0.1 0.8 0 1.3 0 0.3 0.2 0.6 0.1 0.9 0 0 0 0.1-0.1 0.1-0.3 0-0.5-0.4-0.6-0.7q-0.2-0.5-0.2-1 0 0.1-0.1 0.3c0 0.4-0.1 0.9 0 1.3 0 0.3 0.2 0.6 0.1 0.9 0 0 0 0.1-0.1 0.1-0.3 0-0.5-0.4-0.6-0.6q-0.2-0.5-0.2-1 0 0.1 0 0.1c-0.1 0.5-0.1 0.9-0.1 1.4 0.1 0.2 0.2 0.6 0.2 0.8q0 0.2-0.1 0.2c-0.4 0-0.6-0.4-0.7-0.7q-0.2-0.5-0.1-1.1-0.1 0.2-0.1 0.4c-0.1 0.4-0.1 0.8-0.1 1.3 0.1 0.3 0.2 0.6 0.2 0.9 0 0-0.1 0.1-0.1 0.1-0.4 0-0.6-0.4-0.7-0.6q-0.2-0.5-0.1-1-0.1 0.1-0.1 0.1c0 0.5-0.1 0.9 0 1.4 0 0.2 0.1 0.6 0.1 0.8q0 0.2-0.1 0.2c-0.3 0-0.5-0.4-0.6-0.7q-0.2-0.5-0.2-1.1-0.1 0.2-0.1 0.3c0 0.5-0.1 0.9 0 1.4 0 0.2 0.1 0.6 0.1 0.9 0 0 0 0.1-0.1 0.1-0.3 0-0.5-0.4-0.6-0.7-0.2-0.4-0.2-0.8-0.2-1.2q-0.1 0.2-0.1 0.5c-0.1 0.5-0.2 0.9-0.1 1.3 0 0.3 0.2 0.6 0.2 0.9 0 0.1-0.1 0.1-0.2 0.1-0.3 0-0.5-0.3-0.6-0.6q-0.2-0.5-0.2-1.1 0 0.2 0 0.3c-0.1 0.5-0.2 0.9-0.1 1.4 0 0.2 0.2 0.6 0.1 0.8q0 0.2-0.1 0.2c-0.3 0-0.5-0.4-0.6-0.7q-0.2-0.5-0.2-1.1 0 0.2-0.1 0.4c0 0.4-0.1 0.9 0 1.3 0 0.3 0.1 0.6 0.1 0.9 0 0 0 0.1-0.1 0.1-0.3 0-0.5-0.4-0.6-0.6-0.1-0.3-0.3-0.9-0.3-1.6 0-0.1 0.1-0.4 0.4-0.7q0.3-0.3 0.6-0.6 1.1-1.1 2.3-2.2c1.5-1.6 3.1-3.1 4.6-4.7zm24.9-25.9c-0.1 0.2-0.5 0.8-0.6 1-0.3 0.4-0.5 0.7-0.8 1.1q-0.8 1.1-1.5 2.3c-0.4 0.7-0.8 1.5-1.1 2.2q-0.3 0.7-0.6 1.5 0 0 0 0 0 0.1-0.1 0.1-0.1 0-0.2 0c-0.3-0.3-0.3-0.9-0.3-1.3q0-0.5 0.1-0.9 0.3-0.4 0.6-0.7c0.4-0.4 1.4-1.6 1.5-1.8 0.2-0.3 0.2-0.4 0.2-0.4-0.1 0.1-1.5 1.5-1.9 2q-0.5 0.4-0.9 0.9-0.5 0.5-0.9 0.9-5.1 5.1-10.2 10.2-3.6 3.6-7.2 7.3 0 0 0 0 0 0 0 0-1.3 1.3-2.5 2.5-2.6 2.6-5.3 5.2c0 0.1-0.4 0.4-0.7 0.8-0.1 0.1-0.2-0.1-0.1-0.2 0.1-0.2 0.1-0.4 0.2-0.5-0.2 0.1-0.4 0.2-0.6 0.2-1.3 0.4-2.4 0.2-2.8 0-0.2-0.1-0.6-0.3-0.6-0.6q0-0.1 0.2-0.2c0.3 0 0.6 0.2 0.9 0.2q0.3 0 0.5 0c0.8 0.2 1.7 0.2 2.2-0.3q0 0 0-0.1c-0.4 0.1-0.8 0.2-1.3 0.3q-0.5 0-1-0.2c-0.2-0.1-0.6-0.4-0.6-0.6q0.1-0.2 0.2-0.2c0.3 0 0.6 0.2 0.9 0.2q0.3 0 0.6 0c0.8 0.2 1.7 0.1 2.2-0.3q0-0.1-0.1-0.1c-0.5 0.1-1 0.3-1.5 0.2q-0.2 0-0.3 0-0.3 0-0.5-0.1c-0.2-0.1-0.6-0.4-0.6-0.6q0-0.2 0.2-0.2c0.3 0 0.6 0.2 0.9 0.2q0.3 0 0.7 0c0.7 0.2 1.6 0.1 2.1-0.4q0 0-0.1 0c-0.3 0.1-0.7 0.2-1.1 0.2-0.4 0-0.8 0-1.1-0.2-0.3-0.1-0.6-0.3-0.6-0.6q0-0.1 0.1-0.1c0.3 0 0.7 0.1 1 0.1q0.2 0.1 0.4 0.1c0.8 0.2 1.7 0.1 2.3-0.4q0 0-0.1 0c-0.4 0.1-0.7 0.2-1.1 0.2q-0.6 0-1.1-0.2c-0.3-0.1-0.6-0.3-0.6-0.6q0-0.1 0.1-0.1c0.3 0 0.7 0.1 1 0.2q0.1 0 0.3 0c0.8 0.2 1.8 0.2 2.3-0.3q0.1-0.1 0-0.1c-0.4 0.1-0.8 0.2-1.3 0.3q-0.5-0.1-1-0.3c-0.2 0-0.5-0.3-0.5-0.5q0-0.2 0.1-0.2c0.3 0 0.6 0.2 0.9 0.2q0.2 0 0.4 0c0.8 0.2 1.8 0.2 2.3-0.3q0 0 0 0c-0.4 0-0.8 0.1-1.1 0.2q0 0 0 0c-0.4 0-0.8-0.1-1.2-0.2-0.2-0.1-0.6-0.3-0.6-0.6 0-0.1 0.1-0.2 0.2-0.2 0.3 0 0.6 0.2 0.9 0.2q0.1 0 0.3 0c0.8 0.3 1.8 0.3 2.4-0.3q0 0 0 0c-0.5 0.1-0.9 0.2-1.3 0.2q0 0 0 0-0.5 0-1-0.2c-0.2-0.1-0.6-0.3-0.6-0.6q0-0.1 0.1-0.1c0.4 0 0.7 0.1 1 0.1q0.3 0.1 0.5 0.1c0.8 0.2 1.7 0.1 2.2-0.4q0 0 0 0c-0.5 0.1-0.9 0.2-1.4 0.2q-0.5 0-0.9-0.2c-0.3-0.1-0.6-0.3-0.6-0.6q0-0.1 0.1-0.1c0.3 0 0.7 0.1 1 0.2q0.7 0 1.3-0.1c0.4-0.1 1.5-0.2 2.1-0.6q2.7-2.7 5.4-5.4c0 0.1-0.1 0.3-0.2 0.5 0 0.1 0.2 0.2 0.3 0.1 0.2-0.2 0.3-0.5 0.4-0.9q0 0 0 0 0 0 0.1 0 0 0 0.1-0.1 0.2 0.2 0.3 0.4 0.3-0.3 0.5-0.6-0.2-0.2-0.4-0.4 0.3-0.4 0.6-0.7 5.1-5.1 10.3-10.2 0.8-0.9 1.7-1.7-0.2 0-0.4 0.1c-0.4 0.1-0.8 0.2-1.3 0.1-0.4 0-0.9 0-1.1-0.3q-0.1-0.1-0.1-0.2 0.1 0 0.1-0.1 0 0 0.1 0 0.7-0.3 1.5-0.6 1.1-0.5 2.1-1.1 1.3-0.8 2.4-1.6 0.5-0.3 1.1-0.7c0.2-0.1 0.8-0.6 0.9-0.6 0.2-0.1 0.2 0 0.2 0zm-28.4 26.3q0 0 0 0 0 0 0 0zm28.3 5.6c0 0.3-0.4 0.5-0.6 0.6-0.3 0.1-0.9 0.3-1.6 0.3-0.1 0-0.4-0.1-0.7-0.4q-0.3-0.3-0.6-0.6-1.1-1.1-2.1-2.2-2.4-2.4-4.7-4.8-0.2-0.2-0.4-0.4c0.4 0.1 0.9 0.2 1.2 0.2 0.4 0.1 0.8 0.1 1.3 0.1 0.3-0.1 0.6-0.2 0.9-0.2q0.1 0 0.1 0.1c0 0.4-0.4 0.6-0.7 0.7q-0.5 0.2-1.1 0.1 0.2 0.1 0.4 0.1c0.4 0.1 0.9 0.1 1.3 0.1 0.3-0.1 0.6-0.2 0.9-0.2q0.1 0 0.1 0.1c0 0.4-0.4 0.6-0.6 0.7q-0.5 0.2-1 0.2 0.1 0 0.1 0c0.5 0 0.9 0.1 1.4 0 0.2 0 0.6-0.1 0.8-0.1q0.2 0 0.2 0.1c0 0.3-0.4 0.5-0.7 0.6q-0.5 0.2-1.1 0.2 0.2 0.1 0.4 0.1c0.4 0 0.8 0.1 1.3 0 0.3 0 0.6-0.1 0.9-0.1q0.1 0 0.1 0.1c0 0.3-0.4 0.5-0.7 0.6q-0.4 0.2-0.9 0.2 0 0 0.1 0c0.5 0.1 0.9 0.2 1.3 0.1 0.3 0 0.7-0.2 0.9-0.2q0.1 0.1 0.2 0.2c0 0.3-0.4 0.5-0.7 0.6q-0.5 0.2-1.1 0.2 0.2 0 0.3 0c0.5 0.1 0.9 0.2 1.4 0.1 0.3 0 0.6-0.2 0.9-0.2 0 0 0.1 0.1 0.1 0.2 0 0.3-0.4 0.5-0.7 0.6-0.4 0.2-0.8 0.2-1.2 0.2q0.2 0.1 0.5 0.1c0.4 0.1 0.9 0.1 1.3 0.1 0.3-0.1 0.6-0.2 0.9-0.2q0.1 0 0.1 0.1c0 0.4-0.3 0.6-0.6 0.7q-0.5 0.2-1.1 0.1 0.2 0.1 0.3 0.1c0.5 0.1 0.9 0.1 1.3 0.1 0.3-0.1 0.7-0.2 0.9-0.2q0.1 0 0.2 0.1c0 0.4-0.4 0.6-0.7 0.7q-0.5 0.2-1.1 0.1 0.2 0.1 0.4 0.1c0.4 0.1 0.8 0.1 1.3 0.1 0.3 0 0.6-0.2 0.9-0.2 0 0 0.1 0.1 0 0.2zm-18.9-15.2q0.4 0.4 0.9 0.9-0.6 0.5-1.1 1c0.1-0.2 0.2-0.3 0.2-0.5 0-0.2-0.1-0.4-0.2-0.6q-0.1 0-0.1-0.1-5.1-5.1-10.2-10.2-0.9-0.9-1.8-1.7 0.1 0.1 0.1 0.3c0.1 0.4 0.2 0.9 0.2 1.3-0.1 0.4-0.1 0.9-0.4 1.2q-0.1 0-0.2 0 0 0 0 0 0-0.1 0-0.1-0.3-0.8-0.6-1.5-0.6-1.1-1.2-2.2-0.7-1.2-1.5-2.4-0.4-0.5-0.7-1c-0.2-0.2-0.6-0.8-0.7-1 0-0.2 0-0.2 0.2-0.1 0.1 0 0.8 0.5 1 0.6 0.4 0.2 0.7 0.5 1.1 0.8q1.1 0.7 2.3 1.4c0.7 0.4 1.4 0.9 2.2 1.2q0.7 0.3 1.4 0.6 0.1 0 0.1 0 0.1 0 0.1 0 0 0.1-0.1 0.2c-0.2 0.4-0.8 0.4-1.2 0.4q-0.5 0-0.9-0.1-0.4-0.3-0.8-0.6c-0.4-0.4-1.5-1.4-1.7-1.5-0.3-0.2-0.4-0.2-0.4-0.2 0 0.1 1.5 1.5 1.9 1.9q0.5 0.5 1 0.9 0.4 0.4 0.9 0.9 5.1 5.1 10.2 10.2zm15.6 15.6c0.2 0.1 0 0.2-0.1 0.1-0.2-0.1-0.4-0.1-0.6-0.2 0.2 0.2 0.3 0.4 0.3 0.6 0.4 1.3 0.1 2.4-0.1 2.8 0 0.3-0.3 0.6-0.5 0.6-0.1 0-0.2-0.1-0.2-0.1 0-0.3 0.2-0.7 0.2-1q0-0.3 0-0.5c0.2-0.8 0.1-1.7-0.3-2.2q-0.1 0-0.1 0c0.1 0.5 0.2 0.9 0.2 1.3q0 0.5-0.2 1c-0.1 0.2-0.3 0.6-0.6 0.6q-0.1 0-0.1-0.2c0-0.3 0.2-0.6 0.2-0.9q0-0.3 0-0.6c0.2-0.8 0.1-1.6-0.4-2.1q0-0.1 0 0c0.1 0.5 0.2 1 0.2 1.5q0 0.2 0 0.3-0.1 0.3-0.2 0.5c-0.1 0.2-0.3 0.6-0.6 0.6q-0.1 0-0.1-0.1c0-0.4 0.1-0.7 0.2-1q0-0.3 0-0.7c0.1-0.7 0.1-1.5-0.4-2q0-0.1 0 0c0 0.4 0.1 0.7 0.2 1.1 0 0.4-0.1 0.8-0.2 1.1-0.1 0.3-0.3 0.6-0.6 0.6-0.1 0-0.1 0-0.1-0.1-0.1-0.3 0.1-0.7 0.1-1q0-0.2 0-0.4c0.3-0.8 0.2-1.7-0.3-2.3q0 0 0 0.1c0.1 0.4 0.2 0.7 0.2 1.1 0 0.4-0.1 0.8-0.2 1.1-0.1 0.3-0.3 0.6-0.6 0.6q-0.1 0-0.1-0.1c0-0.3 0.1-0.7 0.1-1q0-0.1 0-0.3c0.3-0.8 0.3-1.8-0.2-2.3q-0.1-0.1-0.1 0c0.1 0.4 0.2 0.9 0.2 1.3q0 0.5-0.2 1c-0.1 0.2-0.3 0.5-0.6 0.5q-0.1 0-0.1-0.1c0-0.3 0.1-0.6 0.2-0.9q0-0.2 0-0.4c0.2-0.8 0.2-1.8-0.3-2.3q0 0-0.1 0c0.1 0.4 0.2 0.8 0.3 1.2q-0.1-0.1-0.1-0.1c0 0.4 0 0.8-0.2 1.2-0.1 0.2-0.3 0.6-0.6 0.6 0 0-0.1-0.1-0.1-0.2 0-0.3 0.2-0.6 0.2-0.9q0-0.1 0-0.2c0.3-0.9 0.2-1.9-0.3-2.5q0 0 0 0.1c0.1 0.4 0.2 0.8 0.2 1.2q0 0 0 0 0 0.5-0.2 1c-0.1 0.3-0.3 0.6-0.6 0.6q-0.1 0-0.1-0.1c-0.1-0.3 0.1-0.7 0.1-1q0-0.2 0-0.5c0.2-0.8 0.2-1.7-0.3-2.2q0 0 0 0c0.1 0.5 0.2 0.9 0.2 1.4q0 0.5-0.2 0.9c-0.1 0.3-0.3 0.6-0.6 0.6-0.1 0-0.1-0.1-0.1-0.1 0-0.3 0.1-0.7 0.1-1q0.1-0.7 0-1.3c-0.1-0.4-0.3-1.5-0.6-2.1q-2.7-2.7-5.4-5.4 0.2-0.2 0.5-0.5 2.7 2.6 5.3 5.3 0.1 0 0.1 0 0 0 0 0 1.2 1.3 2.5 2.5 2.6 2.6 5.2 5.2c0 0 0.4 0.4 0.6 0.7zm-6.5-4q0 0 0 0 0 0 0 0z"/>
							</g>
						</g>
					</g>
				</g>
			</g>
		</g>
	</g>
	<g id="Clip-Path" clip-path="url(#cp4)">
		<g id="Layer">
			<g id="Clip-Path" clip-path="url(#cp5)">
				<g id="Layer">
					<path id="Layer" class="s1" d="m0 0.7v57.7h57.7v-57.7z"/>
				</g>
			</g>
		</g>
	</g>
	<g id="Clip-Path" clip-path="url(#cp6)">
		<g id="Layer">
			<g id="Clip-Path" clip-path="url(#cp7)">
				<g id="Layer">
					<path id="Layer" class="s2" d="m3.8 4.6v50h50.1v-50z"/>
				</g>
			</g>
		</g>
	</g>
	<g id="Clip-Path" clip-path="url(#cp8)">
		<g id="Layer">
			<g id="Clip-Path" clip-path="url(#cp9)">
				<g id="Layer">
					<path id="Layer" class="s3" d="m14.3 34.4v7.7h29.1v-7.7z"/>
				</g>
			</g>
		</g>
	</g>
	<g id="Clip-Path" clip-path="url(#cp10)">
		<g id="Layer">
			<g id="Clip-Path" clip-path="url(#cp11)">
				<g id="Layer">
					<path id="Layer" class="s4" d="m14.3 25.7v7.7h29.1v-7.7z"/>
				</g>
			</g>
		</g>
	</g>
	<g id="Clip-Path" clip-path="url(#cp12)">
		<g id="Layer">
			<g id="Clip-Path" clip-path="url(#cp13)">
				<g id="Layer">
					<path id="Layer" class="s5" d="m14.3 17.1v7.7h29.1v-7.7z"/>
				</g>
			</g>
		</g>
	</g>
	<g id="Layer">
		<g id="Layer">
			<g id="Layer">
				<path id="Layer" class="s6" d="m71.5 41.4l2.7 0.1 0.7-0.1 0.7-0.2 0.7-0.1 0.7-0.3h0.6l0.7-0.3 2.4-1.5 1-1 0.3-0.5 0.4-0.8 0.2-0.6 0.2-0.6 0.2-1.7-0.1-1.1-0.5-2-0.4-0.6-0.9-1-0.6-0.6-0.5-0.3-0.7-0.4-2.7-0.8-0.7-0.1h-0.7l-0.7-0.2h-1l-1.8-0.4-1.3-0.6-0.6-0.5-0.1-1 0.2-0.9 0.4-0.5 0.5-0.4 0.6-0.3 0.6-0.1 1.1-0.1 1.1 0.2 0.7 0.2 0.6 0.4 0.6 0.5 0.5 0.6 0.8 0.5 1.6-0.1h0.9 0.7l0.6 0.1 0.7-0.5 0.3-0.6-0.2-0.6v-0.7l-1-1.8-0.8-1-2.3-1.6-1.9-0.7-1.4-0.3-2.6-0.1-0.8 0.3h-0.7l-0.6 0.1-1.3 0.4-1.2 0.7-1.7 1.2-1.2 1.6-0.6 1.9-0.1 1.7v1.1l0.2 1.4 0.6 1.2 1.3 1.6 2.3 1.3 1.3 0.4 5.5 0.6 1.2 0.6 0.5 0.4 0.2 0.9-0.3 0.9-0.5 0.5-1.1 0.5-1.1 0.1-0.6 0.1-1.8-0.2-0.6-0.3-0.6-0.4-1.1-1.2-0.7-0.3h-0.7l-0.6-0.1-2.7 0.2-0.6 0.3-0.3 0.7 0.1 0.7 0.1 0.7 0.2 0.6 0.7 1.3 0.5 0.4 0.4 0.6 1.3 0.7 0.4 0.5 0.7 0.4 0.7 0.2 1.4 0.4z"/>
			</g>
		</g>
	</g>
	<g id="Layer">
		<g id="Layer">
			<g id="Layer">
				<path id="Layer" fill-rule="evenodd" class="s6" d="m96.1 41.4l-2.9-0.8-0.7-0.3-2.3-1.3-0.5-0.5-1-0.9-1.6-2.3-0.3-0.6-0.2-0.7-0.6-1.2-0.4-2.2 0.2-4 0.3-1.5 0.6-1.9 0.3-0.6 1.2-1.7 1-1.1 1.1-0.7 0.5-0.5 1.7-1.1 1.3-0.3 0.7-0.3 0.7-0.2 0.7-0.1 2.4-0.2h1.6l4.6 1.5 1.7 1.1 1.5 1.3 0.5 0.7 0.4 0.4 0.5 0.6 0.2 0.6 0.6 1.1 0.2 0.8 0.3 0.8 0.3 1.3 0.1 2.4-0.1 2.4-0.2 0.7-0.2 0.6-0.1 0.7-0.2 0.7-1.4 2.4-0.4 0.6-2.5 2.3-3.1 1.4-1.3 0.4-3.1 0.3zm3.1-6l0.7-0.2 0.6-0.1 0.6-0.3 0.6-0.3 1.1-0.8 0.4-0.6 0.3-0.6 0.4-0.5 0.3-1.4 0.2-1.7-0.1-1.5-0.3-0.7-0.2-0.7-0.2-0.6-0.8-1.2-1.1-0.8-1.9-0.8-1.6-0.1-1.6 0.2-0.8 0.1-0.6 0.4-1 0.7-0.5 0.4-0.5 0.6-0.3 0.6-0.4 0.4-0.2 0.7-0.2 1.2-0.1 1.1 0.2 1.7 0.7 2 0.4 0.5 0.4 0.4 1 1 1.2 0.6 0.6 0.1 0.7 0.2z"/>
			</g>
		</g>
	</g>
	<g id="Layer">
		<g id="Layer">
			<g id="Layer">
				<path id="Layer" class="s6" d="m114.8 39.8l0.2 0.9 0.7 0.4h0.7l1.4-0.1 1.4 0.1 1.3-0.1 0.7 0.1h0.7 6.9l0.7-0.3 0.4-1.1-0.1-2.8-0.3-1.1-0.6-0.4-0.7 0.1-0.7 0.1-0.7-0.1-1.5 0.1-0.6-0.2-0.7 0.1-1.3-0.1-0.8 0.1-0.7-0.3-0.2-0.7v-11.7l-0.1-0.9 0.1-1.4-0.1-1.9v-0.7l-0.3-0.8-0.7-0.4h-1.4l-0.7 0.2-1.3-0.2-0.7 0.1-0.7 0.3-0.4 0.8v4.8 0.7 0.7l-0.1 1.3 0.1 0.7v0.7z"/>
			</g>
		</g>
	</g>
	<g id="Layer">
		<g id="Layer">
			<g id="Layer">
				<path id="Layer" fill-rule="evenodd" class="s6" d="m150.6 41.1l-0.8-0.4-0.7-0.5-0.2-0.6-0.3-0.7-0.7-0.5-0.7-0.4-0.8 0.1-0.6-0.1-3.4 0.1-0.7-0.1-1.4 0.1-0.7-0.1-0.7 0.4-0.7 0.6-0.6 1.2-0.7 0.6-0.8 0.2-1.9 0.1-0.7-0.1-1.4 0.1-0.6-0.2-0.2-0.9 0.2-0.7 0.7-1.3 0.2-0.7 0.3-0.5 0.6-1.4 0.6-1.1 0.2-0.7 0.4-0.5 0.2-0.7 3.5-7.5 0.2-0.6 0.4-0.7 0.2-0.7 0.4-0.5 1.4-3.2 0.3-0.5 0.2-0.7 0.3-0.5 0.7-0.6 1.1-0.4 1.1 0.3 0.6 0.7 0.7 1.2 0.2 0.6 0.4 0.6 0.2 0.7 2.3 4.8 0.2 0.8 0.7 1.3 0.2 0.5 0.4 0.5 0.2 0.8 0.3 0.7 0.4 0.5 1.3 3.1 0.7 1.3 0.5 1.3 0.9 1.8 0.5 1.3 0.3 0.8-0.1 0.8-1 0.2h-1.1l-0.7-0.1-1.3 0.1zm-5.7-8.6l0.5-0.2 0.1-0.7-1.6-3.8-0.5-0.3-0.4 0.3-1.6 3.8v0.7l0.6 0.2 0.8-0.1 0.7 0.2z"/>
			</g>
		</g>
	</g>
	<g id="Layer">
		<g id="Layer">
			<g id="Layer">
				<path id="Layer" class="s6" d="m176.5 40.5l1 0.5 0.9 0.1 0.8-0.2 0.4-0.7v-12.7l-0.1-0.6v-3.4l0.1-0.8-0.1-4.9-0.3-0.7-0.7-0.3h-4.3l-0.7 0.4-0.4 0.7v0.7l0.1 0.6-0.1 1.5 0.1 0.7-0.1 6.2-0.2 0.6-0.5-0.2-2.5-2.5-1-0.7-6.8-7-0.5-0.4-0.8-0.4-1.1-0.2-0.8 0.3-0.3 0.7v10.5 0.6 1.4l-0.1 0.6 0.1 5.7-0.1 0.7 0.1 2.9 0.3 0.6 0.8 0.3h1.4 0.7l1.4 0.1 0.7-0.1 0.7-0.3 0.4-1.1v-8.8l0.1-0.7 0.2-0.6 0.5 0.2 0.4 0.6 2.5 2.4 0.4 0.5 0.6 0.4 5.4 5.3 0.9 1z"/>
			</g>
		</g>
	</g>
	<g id="Layer">
		<g id="Layer">
			<g id="Layer">
				<path id="Layer" fill-rule="evenodd" class="s6" d="m202 41.1l-0.8-0.4-0.7-0.5-0.2-0.6-0.3-0.7-0.7-0.5-0.7-0.4-0.8 0.1-0.6-0.1-3.4 0.1-0.7-0.1-1.4 0.1-0.7-0.1-0.7 0.4-0.7 0.6-0.6 1.2-0.7 0.6-0.8 0.2-1.9 0.1-0.7-0.1-1.4 0.1-0.7-0.2-0.1-0.9 0.2-0.7 0.7-1.3 0.2-0.7 0.3-0.5 0.6-1.4 0.6-1.1 0.2-0.7 0.4-0.5 0.2-0.7 3.5-7.5 0.2-0.6 0.4-0.7 0.2-0.7 0.4-0.5 1.4-3.2 0.3-0.5 0.2-0.7 0.3-0.5 0.7-0.6 1.1-0.4 1.1 0.3 0.6 0.7 0.7 1.2 0.2 0.6 0.4 0.6 0.2 0.7 2.3 4.8 0.2 0.8 0.7 1.3 0.2 0.5 0.3 0.5 0.3 0.8 0.3 0.7 0.4 0.5 1.3 3.1 0.7 1.3 0.5 1.3 0.9 1.8 0.5 1.3 0.3 0.8-0.1 0.8-1 0.2h-1.1l-0.7-0.1-1.3 0.1zm-5.7-8.6l0.5-0.2 0.1-0.7-1.6-3.8-0.5-0.3-0.4 0.3-1.6 3.8v0.7l0.6 0.2 0.8-0.1 0.7 0.2z"/>
			</g>
		</g>
	</g>
	<g id="Layer">
		<g id="Layer">
			<g id="Layer">
				<path id="Layer" class="s6" d="m210 40.1l0.4 0.7 0.6 0.3h0.7l1.4 0.1 0.8-0.1h1.4l0.8-0.4 0.2-0.6 0.1-0.7-0.1-0.8v-6.1l0.3-0.7 0.8-0.5h4.1l0.7 0.1h0.6l0.7 0.4 0.3 0.6 0.1 7.7 0.3 0.6 1.1 0.4h1.8l0.7-0.1 1.4 0.1 0.6-0.4 0.5-0.6-0.1-3.2 0.1-1.1-0.1-0.5v-17.5l-0.3-0.7-0.7-0.3h-4l-1 0.2-0.3 0.9-0.1 1.3 0.1 0.6-0.1 1.4 0.1 0.7v2.7l-0.4 0.7-0.7 0.4-0.6-0.1-1.4 0.1-0.7-0.1-0.6 0.1h-2.1l-0.7-0.4-0.3-0.6v-0.8-0.7l-0.1-0.6 0.1-2.7v-0.8-1.3l-0.3-0.7-0.8-0.3h-0.7-3.5l-0.7 0.3-0.4 0.7-0.1 0.8 0.1 2.7-0.1 0.7 0.2 1.4-0.1 1.3v0.9 0.6 10.4l0.1 0.7z"/>
			</g>
		</g>
	</g>
	<g id="Layer">
		<g id="Layer">
			<g id="Layer">
				<path id="Layer" class="s6" d="m244.8 41.5l1-0.1 0.7 0.1 2.7-0.7 1.3-0.7 1.1-0.8 1-0.9 0.8-1.2 0.2-0.7 0.3-0.6 0.4-1.5 0.1-1.7v-9.3-0.7-0.8-0.5-2.9l0.1-0.7-0.5-0.7-0.8-0.3-2.1 0.1-1.5-0.1-0.7 0.3-0.4 0.8 0.1 13.7-0.3 2.2-0.2 0.5-0.4 0.7-0.6 0.4-1.2 0.4h-2.1l-0.8-0.1-0.6-0.4-0.5-0.4-0.4-0.6-0.2-0.6-0.2-2 0.1-11.2-0.1-0.5 0.1-1.2-0.1-1-0.4-0.7-0.8-0.3h-0.6l-0.7 0.1-1.5-0.2-0.7 0.1-0.8 0.3-0.4 0.7 0.1 0.7v0.8l-0.1 0.6 0.1 4.8-0.1 0.7 0.1 0.7-0.1 5.6 0.2 2.7 0.3 1.5 0.6 1.1 0.8 1.3 0.4 0.5 0.5 0.4 1.1 0.8 0.7 0.3 0.5 0.3 1.3 0.6 1.4 0.3h0.7z"/>
			</g>
		</g>
	</g>
	<g id="Layer">
		<g id="Layer">
			<g id="Layer">
				<path id="Layer" class="s6" d="m277.3 40.5l1 0.5 0.9 0.1 0.8-0.2 0.3-0.7 0.1-12.7-0.1-0.6v-3.4l0.1-0.8-0.1-4.9-0.3-0.7-0.7-0.3h-4.3l-0.7 0.4-0.4 0.7v0.7l0.1 0.6-0.1 1.5v0.7 6.2l-0.2 0.6-0.6-0.2-2.4-2.5-1-0.7-6.8-7-0.6-0.4-0.8-0.4-1-0.2-0.8 0.3-0.3 0.7v10.5 0.6 1.4l-0.1 0.6 0.1 5.7-0.1 0.7 0.1 2.9 0.3 0.6 0.7 0.3h1.5 0.7l1.4 0.1 0.7-0.1 0.7-0.3 0.3-1.1 0.1-8.8 0.1-0.7 0.2-0.6 0.4 0.2 0.5 0.6 2.5 2.4 0.4 0.5 0.6 0.4 5.4 5.3 0.9 1z"/>
			</g>
		</g>
	</g>
	<g id="Layer">
		<g id="Layer">
			<g id="Layer">
				<path id="Layer" class="s6" d="m292.1 41.1h2.3l1-0.4 0.4-0.9 0.1-1.8-0.1-1.4v-0.7-1.4l0.1-0.6-0.1-0.8v-5.6l-0.1-0.7 0.1-3 0.3-1.1 0.7-0.4h1.3l1.3 0.1 0.7-0.1 0.7 0.1 0.5-0.4 0.5-0.8v-3.3l-0.4-0.7-0.6-0.4h-2.2l-0.7-0.1-0.7 0.1-0.6-0.1-2.9 0.2-0.7-0.2h-0.6l-0.7 0.1-0.8-0.1-0.6 0.2-2.1-0.1-1.1 0.1-2.4-0.2-0.7 0.4-0.4 0.8 0.1 0.7-0.1 1.7 0.1 1.1 0.3 0.6 0.6 0.4 0.7-0.1 3.3 0.1 0.7 0.3 0.3 0.7v1.1 1 0.7 0.7 1l0.1 5.2-0.1 0.7v2.8 0.7 2l-0.1 0.7 0.5 0.8 1 0.3z"/>
			</g>
		</g>
	</g>
	<g id="Layer">
		<g id="Layer">
			<g id="Layer">
				<path id="Layer" class="s6" d="m314.5 41.2l5-0.1 0.7-0.3 0.4-0.7v-3.5l-0.4-0.7-0.7-0.3h-0.8l-0.7-0.1h-1.8l-1.1 0.1h-0.7-0.8l-0.6-0.1-0.8 0.1-0.7-0.4-0.3-0.6v-2.2l0.3-0.7 0.6-0.4 1.1-0.1 1.1 0.2 1.3-0.1h1.4l0.7-0.1 0.8 0.1 0.7-0.3 0.3-0.7 0.1-3.1-0.4-1-0.8-0.4h-2-0.7l-1.5-0.1-2 0.1-0.8-0.3-0.2-1.1v-1.1l0.3-0.6 0.7-0.3h0.7l0.7-0.1 4.9 0.1 0.7-0.1 0.7-0.4 0.4-0.6-0.1-0.7 0.1-0.7-0.1-2.1-0.3-0.7-0.7-0.2h-0.7l-0.7-0.2-2.8 0.1h-0.7-0.7-0.6l-0.7-0.1-2.9 0.1-0.7-0.1-0.6 0.1h-0.6-0.7-0.7l-0.8 0.3-0.3 0.7v1.3l-0.1 1.4 0.1 0.8v3.4l0.1 0.7-0.1 0.7v2.9l0.1 0.6-0.1 5.6v0.7l0.1 0.7-0.1 2.4v0.7l0.3 1 1 0.4h2.5 0.8 0.6l1.5-0.1 0.6 0.1 0.8 0.1 0.7-0.1z"/>
			</g>
		</g>
	</g>
	<g id="Layer">
		<g id="Layer">
			<g id="Layer">
				<path id="Layer" fill-rule="evenodd" class="s6" d="m324.9 34.5v-0.7-2.8l0.1-0.7-0.1-0.6v-0.7-0.8l0.1-1.4-0.1-0.7v-7.9l0.4-1 0.6-0.3 2-0.2h0.8l0.7 0.2h0.7l0.6-0.2h0.7l0.7 0.1h2.1 1 1.1l2 0.4 1.3 0.5 1.2 0.7 2 2 0.4 0.6 0.3 0.6 0.6 2 0.1 0.7 0.1 2.2-0.5 2-1.3 2.4-0.5 0.4-0.5 0.5-0.3 0.8v0.8l0.4 0.6 1.1 1.8 0.4 0.6 1.1 1.8 0.3 0.6 0.4 0.5 0.4 0.8-0.2 0.7-0.7 0.3-1.1 0.1-0.7-0.1h-2.7l-1.2-0.3-0.8-0.6-0.3-0.6-0.3-0.7-0.4-0.5-0.7-1.2-0.7-1.1-0.3-0.6-0.4-0.7-0.7-0.6-2-0.3-0.6 0.4-0.4 0.7v2.2l0.1 0.8-0.1 0.6v1.2l-0.3 1-1.1 0.3h-1.1l-0.5 0.1-1.1-0.1-0.7 0.1-1-0.5-0.4-1zm8-6.3l1.6 0.1h0.7l1-0.3 0.6-0.3 0.4-0.3 0.4-0.5 0.3-0.7 0.1-1-0.1-0.9-0.2-0.6-0.9-1.1-0.7-0.1-0.9-0.1-0.9-0.2-1.4 0.1h-0.7l-0.7 0.3-0.4 0.6v1.5 0.6 2.1l0.3 0.5 0.7 0.4z"/>
			</g>
		</g>
	</g>
	<g id="Layer">
		<g id="Layer">
			<g id="Layer">
				<path id="Layer" class="s6" d="m355.8 41.4l2.7 0.1 0.7-0.1 0.7-0.2 0.7-0.1 0.7-0.3h0.6l0.7-0.3 2.3-1.5 1-1 0.4-0.5 0.4-0.8 0.2-0.6 0.2-0.6 0.2-1.7-0.1-1.1-0.5-2-0.4-0.6-0.9-1-0.6-0.6-0.6-0.3-0.6-0.4-2.7-0.8-0.7-0.1h-0.7l-0.7-0.2h-1l-1.9-0.4-1.2-0.6-0.6-0.5-0.1-1 0.2-0.9 0.4-0.5 0.5-0.4 0.6-0.3 0.6-0.1 1.1-0.1 1.1 0.2 0.6 0.2 0.7 0.4 0.5 0.5 0.6 0.6 0.7 0.5 1.7-0.1h0.9 0.7l0.6 0.1 0.7-0.5 0.3-0.6-0.2-0.6v-0.7l-1-1.8-0.8-1-2.3-1.6-1.9-0.7-1.4-0.3-2.7-0.1-0.7 0.3h-0.7l-0.6 0.1-1.4 0.4-1.1 0.7-1.7 1.2-1.2 1.6-0.6 1.9-0.2 1.7 0.1 1.1 0.2 1.4 0.6 1.2 1.3 1.6 2.3 1.3 1.3 0.4 5.4 0.6 1.3 0.6 0.4 0.4 0.2 0.9-0.2 0.9-0.5 0.5-1.2 0.5-1 0.1-0.7 0.1-1.7-0.2-0.6-0.3-0.6-0.4-1.2-1.2-0.7-0.3h-0.6l-0.6-0.1-2.7 0.2-0.6 0.3-0.3 0.7 0.1 0.7 0.1 0.7 0.2 0.6 0.7 1.3 0.5 0.4 0.4 0.6 1.2 0.7 0.5 0.5 0.7 0.4 0.7 0.2 1.3 0.4z"/>
			</g>
		</g>
	</g>
</svg>