<svg width="307" height="103" viewBox="0 0 307 103" fill="none" xmlns="http://www.w3.org/2000/svg">
<path d="M122.805 49.3233V16.063H132.203L144.978 37.689L146.164 37.2328L144.841 29.796V16.063H152.963V49.3233H143.564L130.88 27.9254L129.694 28.336L131.017 35.4991V49.3233H122.805Z" fill="#080B18"/>
<path d="M157.643 49.3233V16.063H181.915V23.0892H165.856V28.7922H179.543V35.3622H165.856V42.2971H181.915V49.3233H157.643Z" fill="#080B18"/>
<path d="M185.883 36.5028V16.063H194.05V36.0009C194.05 40.5178 196.377 42.4796 200.483 42.4796C204.954 42.4796 206.916 40.1528 206.916 36.0009V16.063H215.083V36.5028C215.083 44.8521 209.243 49.7796 200.437 49.7796C190.445 49.7796 185.883 44.3959 185.883 36.5028Z" fill="#080B18"/>
<path d="M219.525 49.3233V16.063H236.178C243.386 16.063 247.265 20.0779 247.265 26.1916C247.265 31.4841 244.573 34.7234 239.828 35.7272V36.9134C243.021 37.5522 243.934 39.1947 244.983 41.704L248.04 49.3233H239.052L235.722 40.7003C234.809 38.3278 233.851 37.7803 231.068 37.7803H227.737V49.3233H219.525ZM227.737 31.8947H234.763C237.364 31.8947 238.55 30.4347 238.55 28.6554V26.511C238.55 24.4123 237.045 23.3629 234.763 23.3629H227.737V31.8947Z" fill="#080B18"/>
<path d="M249.688 32.8072C249.688 21.8117 255.938 15.6523 265.519 15.6523C275.648 15.6523 281.351 22.3592 281.351 32.8072C281.351 43.6659 275.146 49.7796 265.519 49.7796C255.391 49.7796 249.688 43.0727 249.688 32.8072ZM258.356 35.0884C258.356 39.879 261.231 42.6165 265.519 42.6165C270.127 42.6165 272.682 39.6053 272.682 35.0884V30.3435C272.682 25.5529 269.808 22.8154 265.519 22.8154C260.957 22.8154 258.356 25.781 258.356 30.3435V35.0884Z" fill="#080B18"/>
<path d="M119.758 71.8463C119.758 61.307 125.826 54.6914 136 54.6914C144.578 54.6914 150.737 59.5276 151.011 67.1013H142.479C142.114 63.862 139.513 61.8545 135.681 61.8545C131.255 61.8545 128.426 64.5463 128.426 69.1088V74.5381C128.426 78.8268 131.073 81.6556 135.681 81.6556C139.24 81.6556 141.977 79.6937 142.479 76.3175H151.011C150.463 84.028 144.213 88.8186 135.635 88.8186C125.461 88.8186 119.758 82.0662 119.758 71.8463Z" fill="#080B18"/>
<path d="M154.169 88.3624V55.102H162.381V68.2419H176.343V55.102H184.555V88.3624H176.343V75.04H162.381V88.3624H154.169Z" fill="#080B18"/>
<path d="M211.565 88.3624L209.922 83.1155H197.649L195.916 88.3624H187.429L198.516 55.102H208.964L220.599 88.3624H211.565ZM199.702 76.8193H207.96L206.181 71.1619L204.447 63.8163H203.216L201.527 71.1619L199.702 76.8193Z" fill="#080B18"/>
<path d="M223.222 88.3624V81.2906H231.252V62.1738H223.222V55.102H247.449V62.1738H239.465V81.2906H247.449V88.3624H223.222Z" fill="#080B18"/>
<path d="M251.287 88.3624V55.102H260.685L273.46 76.7281L274.646 76.2719L273.323 68.835V55.102H281.444V88.3624H272.046L259.362 66.9644L258.176 67.3751L259.499 74.5381V88.3624H251.287Z" fill="#080B18"/>
<path d="M67.6007 6H35.6029C33.9858 6 32.438 6.66212 31.3139 7.83469L9.23557 30.8669C7.80159 32.3628 7 34.3622 7 36.4429V69.2315C7 70.792 7.60119 72.2915 8.67668 73.4135L31.3636 97.0805C31.9849 97.7286 33.0727 97.285 33.0727 96.3835V46.8982C33.0727 45.3376 33.6739 43.8381 34.7493 42.7162L68.3156 7.69978C68.9257 7.06334 68.4785 6 67.6007 6Z" fill="#080B18"/>
<path d="M38.8654 98.4703H70.8632C72.4803 98.4703 74.0282 97.8082 75.1522 96.6356L97.2306 73.6034C98.6646 72.1074 99.4661 70.1081 99.4661 68.0274V35.2388C99.4661 33.6783 98.865 32.1788 97.7895 31.0568L75.1026 7.38983C74.4813 6.74165 73.3935 7.18526 73.3935 8.08683V57.5721C73.3935 59.1327 72.7923 60.6322 71.7168 61.7541L38.1506 96.7705C37.5405 97.407 37.9877 98.4703 38.8654 98.4703Z" fill="#080B18"/>
<path d="M292.6 62.9623L292.212 61.7229H289.313L288.903 62.9623H286.898L289.517 55.1055H291.985L294.734 62.9623H292.6ZM289.798 60.2356H291.748L291.328 58.8992L290.918 57.164H290.627L290.229 58.8992L289.798 60.2356Z" fill="#080B18"/>
<path d="M295.513 62.9623V61.2918H297.41V56.776H295.513V55.1055H301.236V56.776H299.35V61.2918H301.236V62.9623H295.513Z" fill="#080B18"/>
</svg>
