<svg height="2.35rem" viewBox="0 0 192 60" fill="none" xmlns="http://www.w3.org/2000/svg"><g clip-path="url(#clip0_1272_2)"><path d="M35.5477 0C18.6502 0 0.5 13.4414 0.5 30C0.5 46.5586 9.96843 60 26.8368 60C43.7052 60 61.6223 46.5586 61.6223 30C61.6223 13.4414 52.4161 0 35.5477 0Z" fill="#00FFFF"></path><path d="M37.6162 17.1879C36.8005 16.9591 35.8973 16.8447 34.8777 16.8447C34.2659 16.8447 33.6249 16.8733 32.984 16.9591C32.4596 17.0163 31.906 17.1021 31.3816 17.2451C27.5943 18.0745 23.9817 20.1908 21.5053 22.7932C18.8833 22.9076 16.407 23.8228 14.3967 25.3099C14.2802 25.3957 14.1928 25.4815 14.0763 25.5673C14.0763 25.5673 14.0471 25.5673 14.0471 25.5959C13.9015 25.7103 13.7849 25.8247 13.6393 25.9391C13.4936 26.0535 13.3771 26.1679 13.2314 26.2823L13.2023 26.3109C13.0857 26.4253 12.9692 26.5397 12.8526 26.6541C12.8235 26.6827 12.7944 26.7113 12.7944 26.7113C12.707 26.7971 12.6196 26.9114 12.5322 26.9972C12.4739 27.0544 12.4448 27.083 12.3865 27.1402C12.27 27.2546 12.1826 27.3976 12.0952 27.512C11.9786 27.655 11.8621 27.798 11.7747 27.941C11.6873 28.0554 11.5999 28.1698 11.5125 28.2842C11.4251 28.3986 11.3668 28.513 11.2794 28.6274C11.2503 28.6846 11.2212 28.7132 11.192 28.7704C11.1046 28.9134 11.0172 29.0563 10.9298 29.1993L10.9007 29.2279C10.8133 29.3709 10.7259 29.5425 10.6676 29.6855C10.6094 29.7713 10.5511 29.8857 10.522 29.9715C10.4637 30.1145 10.4054 30.2575 10.3472 30.4005C10.2598 30.5721 10.2015 30.7437 10.1432 30.9439C10.085 31.1154 10.0267 31.287 9.96842 31.4872C9.96842 31.5158 9.93929 31.5444 9.93929 31.573C9.88102 31.7446 9.85189 31.8876 9.79362 32.0592C9.70622 32.431 9.61882 32.8314 9.56055 33.2317C9.38575 34.3471 9.38575 35.4624 9.50228 36.5206C9.03614 34.4329 8.77394 32.2022 8.77394 29.8857C8.77394 23.0792 12.9109 16.9591 18.7085 12.8695C18.9707 12.6693 19.2329 12.4977 19.4951 12.3261C19.4951 12.3261 19.4951 12.3261 19.5242 12.2975C21.4762 11.0392 23.836 10.3242 26.3706 10.3242C26.6037 10.3242 26.8368 10.3242 27.0699 10.3528C27.2738 10.3528 27.5069 10.3814 27.7108 10.41C27.8273 10.41 27.9147 10.4386 28.0021 10.4386C28.1478 10.4672 28.2643 10.4672 28.3809 10.4958C28.5848 10.5244 28.7887 10.553 28.9927 10.6102C29.1383 10.6388 29.2549 10.6674 29.4005 10.696C29.4588 10.696 29.5171 10.7246 29.5753 10.7532C29.721 10.7818 29.8375 10.8104 29.9832 10.8676C30.0998 10.8962 30.1872 10.9248 30.3037 10.982C30.3911 11.0106 30.4785 11.0392 30.5659 11.0678C30.6824 11.0964 30.799 11.1536 30.8864 11.1822C30.9738 11.2108 31.0903 11.2394 31.1777 11.2966C31.2942 11.3538 31.3816 11.3824 31.4982 11.4396C31.5856 11.4682 31.7021 11.5254 31.7895 11.5826C32.2265 11.7828 32.6635 12.0115 33.0714 12.2689C33.3919 12.4691 33.6832 12.6693 33.9745 12.8981C34.1202 13.0125 34.295 13.1555 34.4407 13.2699C34.5863 13.4129 34.7611 13.5273 34.9068 13.6703C35.0525 13.7847 35.169 13.9277 35.2855 14.042C35.3147 14.042 35.3147 14.0706 35.3438 14.0992C35.4021 14.1564 35.4603 14.2422 35.5186 14.2994C35.6643 14.4424 35.7808 14.5568 35.8973 14.6998C36.5965 15.472 37.1792 16.3013 37.6162 17.1879Z" fill="black"></path><path d="M53.5232 27.0542C53.4941 27.283 53.4358 27.5118 53.3775 27.7406C53.3193 27.9408 53.2901 28.141 53.2319 28.3412C53.2319 28.3984 53.2027 28.4556 53.2027 28.4842C53.1445 28.6844 53.0862 28.8846 53.0279 29.0847C52.8823 29.4851 52.7366 29.8569 52.5618 30.2573C52.5618 30.2859 52.5618 30.2859 52.5327 30.2859C52.4744 30.3717 52.4453 30.4861 52.387 30.5719C52.2996 30.7435 52.2122 30.9151 52.1248 31.058C52.0374 31.2296 51.95 31.4012 51.8334 31.5442C51.7169 31.7444 51.6004 31.916 51.4547 32.1162C51.309 32.345 51.1342 32.5738 50.9594 32.774C50.872 32.8884 50.7846 33.0028 50.6681 33.1172C50.639 33.1458 50.6098 33.1744 50.5807 33.2315C50.4642 33.3745 50.3476 33.4889 50.2311 33.6319L50.1728 33.6891C50.0272 33.8321 49.8815 34.0037 49.7067 34.1467C49.5319 34.2897 49.3571 34.4613 49.2114 34.6043C49.0657 34.7473 48.891 34.8617 48.7453 34.9761C48.7161 35.0047 48.6579 35.0333 48.6287 35.0619C48.4831 35.1763 48.3083 35.2907 48.1335 35.405C47.9587 35.5194 47.7547 35.6624 47.5799 35.7482C47.4634 35.8054 47.3469 35.8912 47.2303 35.9484C47.1138 36.0056 46.9973 36.0914 46.8807 36.1486C46.7642 36.2058 46.6477 36.263 46.5311 36.3202C45.5988 36.7492 44.5792 37.0924 43.5595 37.2926C43.3847 37.3212 43.2099 37.3498 43.006 37.3784C42.8603 37.407 42.7146 37.407 42.5398 37.4356C42.4233 37.4356 42.3068 37.4642 42.1902 37.4642C42.1028 37.4642 41.9863 37.4928 41.8989 37.4928C41.7241 37.4928 41.5201 37.5213 41.3453 37.5213C43.443 35.405 44.8122 32.917 44.9579 30.4003C44.9579 30.3431 44.9579 30.2573 44.9579 30.2001C44.9579 30.1143 44.9579 30.0285 44.9579 29.9427C44.9579 27.2544 44.4044 19.304 38.1115 17.3021C37.9658 17.2449 37.8202 17.2163 37.6745 17.1877C37.2084 16.3011 36.6548 15.4718 36.0139 14.7282C35.8974 14.5852 35.7808 14.4708 35.6352 14.3278C35.5769 14.2706 35.5186 14.1848 35.4603 14.1276C35.4312 14.099 35.4312 14.099 35.4021 14.0704C35.2855 13.956 35.1399 13.8131 35.0233 13.6987C34.8777 13.5557 34.732 13.4413 34.5572 13.2983C34.4115 13.1553 34.2367 13.0409 34.0911 12.9265C33.7997 12.6977 33.5084 12.4975 33.1879 12.2973C32.7801 12.0399 32.3722 11.8111 31.906 11.611C31.8186 11.5538 31.7312 11.5252 31.6147 11.468C31.5273 11.4108 31.4108 11.3822 31.2942 11.325C31.2068 11.2964 31.1194 11.2392 31.0029 11.2106C30.8864 11.1534 30.7698 11.1248 30.6824 11.0962C30.595 11.0676 30.5076 11.039 30.4202 11.0104C30.3037 10.9818 30.2163 10.9532 30.0998 10.896C29.9541 10.8674 29.8376 10.8102 29.6919 10.7816C29.6336 10.753 29.5754 10.753 29.5171 10.7244C29.3714 10.6958 29.2549 10.6672 29.1092 10.6386C28.9053 10.5814 28.7013 10.5528 28.4974 10.5242C28.3809 10.4956 28.2352 10.4956 28.1187 10.467C28.0313 10.4384 27.9147 10.4384 27.8273 10.4384C27.6234 10.4098 27.4195 10.4098 27.1864 10.3812C26.9533 10.3526 26.7203 10.3526 26.4872 10.3526C23.9526 10.3526 21.6219 11.0676 19.6408 12.3259C24.0982 9.40886 29.5754 7.63574 34.8777 7.63574C43.4721 7.63574 49.3862 12.2973 52.2704 19.2182C52.5035 19.7616 52.7075 20.305 52.8823 20.8769C52.9114 20.9627 52.9405 21.0771 52.9697 21.1629C53.1153 21.6491 53.261 22.1353 53.3775 22.6214C53.698 24.0228 53.7563 25.5385 53.5232 27.0542Z" fill="#626161"></path><path d="M38.4028 50.2764C35.1981 51.5634 31.7604 52.2783 28.41 52.2783C20.1361 52.2783 14.2511 47.9313 11.192 41.4394C10.4928 39.9523 9.9393 38.3222 9.53143 36.6063C9.41489 35.5481 9.41489 34.4328 9.5897 33.3174C9.64796 32.917 9.73536 32.5453 9.82276 32.1449C9.8519 31.9733 9.91016 31.8017 9.96843 31.6587C9.96843 31.6301 9.96843 31.6015 9.99757 31.5729C10.0558 31.4013 10.1141 31.2011 10.1724 31.0295C10.2306 30.8579 10.318 30.6577 10.3763 30.4862C10.4346 30.3432 10.4928 30.2002 10.5511 30.0572C10.5802 29.9714 10.6385 29.857 10.6968 29.7712C10.755 29.6282 10.8424 29.4566 10.9298 29.3136C10.9298 29.3136 10.9298 29.285 10.959 29.285C11.0464 29.142 11.1046 28.999 11.2212 28.856C11.2503 28.7988 11.2794 28.7702 11.3086 28.713C11.3668 28.5986 11.4542 28.4842 11.5416 28.3698C11.629 28.2555 11.6873 28.1411 11.8038 28.0267C11.9204 27.8837 12.0078 27.7407 12.1243 27.5977C12.2117 27.4833 12.3283 27.3403 12.4157 27.2259C12.4739 27.1687 12.5031 27.1401 12.5613 27.0829C12.6487 26.9685 12.7361 26.8827 12.8235 26.7969C12.8527 26.7683 12.8818 26.7397 12.8818 26.7397C12.9983 26.6253 13.1149 26.5109 13.2314 26.3965C13.2314 26.3679 13.2605 26.3679 13.2605 26.3679C13.3771 26.2535 13.5227 26.1106 13.6684 26.0248C13.8141 25.9104 13.9306 25.796 14.0763 25.6816L14.1054 25.653C14.2219 25.5672 14.3093 25.4814 14.4259 25.3956C16.4361 23.9085 18.9125 22.9933 21.5345 22.8789C19.4951 25.0524 18.1841 27.5691 18.1841 30.0286C18.1841 30.5148 18.2132 31.2011 18.2715 32.0019C18.2715 32.1163 18.3006 32.2307 18.3006 32.3451C18.6211 35.2621 19.6699 39.4947 23.0203 41.6682C23.5738 43.6415 24.6518 45.4719 26.0793 46.9304C27.9147 48.8179 30.4202 50.162 33.2462 50.591C35.0525 50.8198 36.7714 50.7054 38.4028 50.2764Z" fill="#292A2A"></path><path d="M54.2807 29.9714C54.2807 37.1782 49.7358 43.5843 43.443 47.6739C41.8697 48.7035 40.1509 49.5901 38.4028 50.305C36.7714 50.734 35.0525 50.8484 33.2753 50.5624C30.4202 50.1334 27.9439 48.7893 26.1085 46.9018C24.6809 45.4432 23.603 43.6129 23.0494 41.6396C23.0786 41.6682 23.1077 41.6682 23.1368 41.6968C24.5061 42.5834 26.225 43.1268 28.4391 43.1268C29.6628 43.1268 30.9155 42.9838 32.1391 42.6978C35.3147 41.9542 38.2863 40.3813 40.5879 38.3222C40.8501 38.0934 41.0831 37.8646 41.3162 37.6072C41.491 37.6072 41.6949 37.6072 41.8697 37.5786C41.9571 37.5786 42.0737 37.5786 42.1611 37.55C42.2776 37.55 42.3941 37.5214 42.5107 37.5214C42.6563 37.4928 42.802 37.4928 42.9768 37.4642C43.1516 37.4356 43.3556 37.407 43.5304 37.3784C44.5792 37.1782 45.5697 36.835 46.502 36.4061C46.6185 36.3489 46.7642 36.2917 46.8516 36.2345C46.9681 36.1773 47.0847 36.1201 47.2012 36.0343C47.3177 35.9771 47.4343 35.8913 47.5508 35.8341C47.7547 35.7197 47.9295 35.6053 48.1043 35.4909C48.2791 35.3765 48.4248 35.2621 48.5996 35.1477C48.6287 35.1191 48.6579 35.0905 48.7161 35.0619C48.8618 34.9475 49.0366 34.8045 49.1823 34.6901C49.3571 34.5472 49.5319 34.4042 49.6776 34.2326C49.8232 34.0896 49.998 33.9466 50.1437 33.775L50.202 33.7178C50.3185 33.5748 50.4642 33.4604 50.5516 33.3174C50.5807 33.2888 50.6098 33.2602 50.639 33.203C50.7555 33.0886 50.8429 32.9742 50.9303 32.8598C51.1051 32.6596 51.2799 32.4309 51.4256 32.2021C51.5421 32.0305 51.6878 31.8303 51.8043 31.6301C51.8917 31.4585 52.0082 31.3155 52.0956 31.1439C52.183 30.9723 52.2704 30.8007 52.3578 30.6577C52.4161 30.5719 52.4452 30.4575 52.5035 30.3717C52.5035 30.3717 52.5035 30.3432 52.5326 30.3432C52.7074 29.9714 52.8531 29.571 52.9988 29.1706C53.057 28.9704 53.1445 28.7702 53.1736 28.57C53.2027 28.5128 53.2027 28.4842 53.2027 28.427C53.261 28.2269 53.3192 28.0267 53.3484 27.8265C53.4067 27.5977 53.4358 27.3689 53.4941 27.1401C53.7271 25.6244 53.6689 24.1086 53.3775 22.6787C53.7854 24.2516 54.0476 25.8818 54.1641 27.5691C54.2515 28.3126 54.2807 29.142 54.2807 29.9714Z" fill="#4C4C4C"></path><path d="M61.4475 21.0202H66.9829L66.2255 25.5387C67.3908 24.1088 68.7892 22.9649 70.3916 22.1355C71.9939 21.3061 73.6545 20.9058 75.3151 20.9058H79.0151L78.1411 26.0249H74.9364C72.3726 26.0249 70.1876 26.7971 68.3231 28.3414C66.4877 29.8857 65.3223 31.9162 64.8562 34.4329L61.7097 51.8209H55.8539L61.4475 21.0202Z" fill="white"></path><path d="M88.3087 51.0774C86.9394 50.2767 85.8615 49.1899 85.104 47.8458L84.4048 51.7924H78.8112L86.5316 8.6084H92.3874L89.6197 24.2233C90.6977 23.1079 91.9213 22.2214 93.2906 21.535C94.6599 20.8486 95.9417 20.5054 97.1653 20.5054H101.565C104.74 20.5054 107.275 21.3348 109.11 23.0221C110.946 24.7094 111.878 26.9687 111.878 29.8C111.878 30.2862 111.79 31.1155 111.616 32.2595L110.246 39.9239C109.547 43.7562 108.032 46.759 105.731 48.9611C103.429 51.1632 100.574 52.25 97.1945 52.25H92.8536C91.1929 52.2786 89.678 51.8782 88.3087 51.0774ZM96.9031 47.2452C98.7968 47.2452 100.399 46.5588 101.739 45.2147C103.079 43.8706 103.953 42.0402 104.39 39.7237L105.701 32.5169C105.818 31.8877 105.876 31.3157 105.876 30.801C105.876 29.1994 105.439 27.9411 104.565 26.9973C103.691 26.0822 102.497 25.596 100.982 25.596H96.8449C94.8055 25.596 92.941 26.311 91.3095 27.7695C89.678 29.1994 88.5709 31.0869 87.9882 33.3748L86.7355 40.1527C86.5607 42.126 87.056 43.8134 88.2505 45.1861C89.4158 46.5588 90.9016 47.2452 92.7079 47.2452H96.9031Z" fill="white"></path><path d="M118.986 50.391C117.675 49.4473 117.005 47.8744 117.005 45.7009C117.005 44.7857 117.093 43.8991 117.268 43.0412L123.444 8.6084H129.271L123.182 42.841C123.094 43.2128 123.065 43.6704 123.065 44.2709C123.065 45.1861 123.298 45.8153 123.793 46.2156C124.289 46.616 125.075 46.7876 126.212 46.7876H128.717L127.843 51.7924H125.075C122.337 51.7924 120.327 51.3348 118.986 50.391Z" fill="white"></path><path d="M136.641 49.7906C134.631 48.1319 133.612 45.9012 133.612 43.0985C133.612 42.4408 133.67 41.7544 133.786 41.0108L135.36 32.4884C136.03 28.742 137.574 25.8249 139.992 23.7086C142.41 21.5923 145.411 20.5342 149.023 20.5342H154.18C157.414 20.5342 160.007 21.4207 161.929 23.1653C163.881 24.9098 164.843 27.2263 164.843 30.1147C164.843 30.8011 164.784 31.5447 164.668 32.2882L163.59 38.0938H140.196L139.7 41.068C139.613 41.7258 139.584 42.1834 139.584 42.4122C139.584 43.9279 140.05 45.129 141.011 46.0156C141.944 46.9021 143.255 47.3311 144.944 47.3311H149.722C151.733 47.3311 153.364 46.8735 154.646 45.9298C155.928 45.0146 156.714 43.6991 157.006 42.0118H162.774C162.192 45.272 160.735 47.7887 158.433 49.5904C156.132 51.3921 153.189 52.3073 149.635 52.3073H144.799C141.361 52.2787 138.652 51.4493 136.641 49.7906ZM158.579 33.4608L158.841 32.2882C158.958 31.7163 159.016 31.1443 159.016 30.6295C159.016 29.0566 158.579 27.7982 157.676 26.8545C156.773 25.9107 155.578 25.4246 154.063 25.4246H148.907C146.926 25.4246 145.265 26.0537 143.896 27.3121C142.526 28.5704 141.623 30.2863 141.157 32.4598L140.982 33.4608H158.579Z" fill="white"></path><path d="M173.903 21.0202H179.439L178.681 25.5387C179.847 24.1088 181.245 22.9649 182.847 22.1355C184.45 21.3061 186.11 20.9058 187.771 20.9058H191.471L190.597 26.0249H187.392C184.828 26.0249 182.643 26.7971 180.779 28.3414C178.943 29.8857 177.778 31.9162 177.312 34.4329L174.165 51.8209H168.31L173.903 21.0202Z" fill="white"></path></g><defs><clipPath id="clip0_1272_2"><rect width="191" height="60" fill="white" transform="translate(0.5)"></rect></clipPath></defs></svg>