<svg width="64" height="65" viewBox="0 0 64 65" fill="none" xmlns="http://www.w3.org/2000/svg">
<path d="M52 0.760254C58.6274 0.760254 64 6.13284 64 12.7603V52.7603C64 59.3877 58.6274 64.7603 52 64.7603H12C5.37258 64.7603 0 59.3877 0 52.7603V12.7603C0 6.13284 5.37258 0.760254 12 0.760254H52Z" fill="url(#paint0_linear_3_234)"/>
<path d="M52 0.760254C58.6274 0.760254 64 6.13284 64 12.7603V52.7603C64 59.3877 58.6274 64.7603 52 64.7603H12C5.37258 64.7603 0 59.3877 0 52.7603V12.7603C0 6.13284 5.37258 0.760254 12 0.760254H52Z" stroke="#E5E7EB"/>
<path d="M45.5 48.6838H18.5V16.6838H45.5V48.6838Z" stroke="#E5E7EB"/>
<g clip-path="url(#clip0_3_234)">
<path d="M18.5 23.2766C18.5 22.0344 19.5078 21.0266 20.75 21.0266H25.25C26.4922 21.0266 27.5 22.0344 27.5 23.2766V24.0266H36.5V23.2766C36.5 22.0344 37.5078 21.0266 38.75 21.0266H43.25C44.4922 21.0266 45.5 22.0344 45.5 23.2766V27.7766C45.5 29.0188 44.4922 30.0266 43.25 30.0266H38.75C37.5078 30.0266 36.5 29.0188 36.5 27.7766V27.0266H27.5V27.7766C27.5 27.8563 27.4953 27.936 27.4859 28.011L31.25 33.0266H35.75C36.9922 33.0266 38 34.0344 38 35.2766V39.7766C38 41.0188 36.9922 42.0266 35.75 42.0266H31.25C30.0078 42.0266 29 41.0188 29 39.7766V35.2766C29 35.1969 29.0047 35.1172 29.0141 35.0422L25.25 30.0266H20.75C19.5078 30.0266 18.5 29.0188 18.5 27.7766V23.2766Z" fill="white"/>
</g>
<defs>
<linearGradient id="paint0_linear_3_234" x1="0" y1="32.7603" x2="64" y2="32.7603" gradientUnits="userSpaceOnUse">
<stop stop-color="#A855F7"/>
<stop offset="1" stop-color="#EC4899"/>
</linearGradient>
<clipPath id="clip0_3_234">
<path d="M18.5 19.5266H45.5V43.5266H18.5V19.5266Z" fill="white"/>
</clipPath>
</defs>
</svg>
