<svg width="25" height="21" viewBox="0 0 25 21" fill="none" xmlns="http://www.w3.org/2000/svg">
<path d="M5.625 0.5C6.4538 0.5 7.24866 0.82924 7.83471 1.41529C8.42076 2.00134 8.75 2.7962 8.75 3.625C8.75 4.4538 8.42076 5.24866 7.83471 5.83471C7.24866 6.42076 6.4538 6.75 5.625 6.75C4.7962 6.75 4.00134 6.42076 3.41529 5.83471C2.82924 5.24866 2.5 4.4538 2.5 3.625C2.5 2.7962 2.82924 2.00134 3.41529 1.41529C4.00134 0.82924 4.7962 0.5 5.625 0.5ZM20 0.5C20.8288 0.5 21.6237 0.82924 22.2097 1.41529C22.7958 2.00134 23.125 2.7962 23.125 3.625C23.125 4.4538 22.7958 5.24866 22.2097 5.83471C21.6237 6.42076 20.8288 6.75 20 6.75C19.1712 6.75 18.3763 6.42076 17.7903 5.83471C17.2042 5.24866 16.875 4.4538 16.875 3.625C16.875 2.7962 17.2042 2.00134 17.7903 1.41529C18.3763 0.82924 19.1712 0.5 20 0.5ZM0 12.168C0 9.86719 1.86719 8 4.16797 8H5.83594C6.45703 8 7.04688 8.13672 7.57812 8.37891C7.52734 8.66016 7.50391 8.95312 7.50391 9.25C7.50391 10.7422 8.16016 12.082 9.19531 13C9.1875 13 9.17969 13 9.16797 13H0.832031C0.375 13 0 12.625 0 12.168ZM15.832 13C15.8242 13 15.8164 13 15.8047 13C16.8438 12.082 17.4961 10.7422 17.4961 9.25C17.4961 8.95312 17.4688 8.66406 17.4219 8.37891C17.9531 8.13281 18.543 8 19.1641 8H20.832C23.1328 8 25 9.86719 25 12.168C25 12.6289 24.625 13 24.168 13H15.832ZM8.75 9.25C8.75 8.25544 9.14509 7.30161 9.84835 6.59835C10.5516 5.89509 11.5054 5.5 12.5 5.5C13.4946 5.5 14.4484 5.89509 15.1517 6.59835C15.8549 7.30161 16.25 8.25544 16.25 9.25C16.25 10.2446 15.8549 11.1984 15.1517 11.9017C14.4484 12.6049 13.4946 13 12.5 13C11.5054 13 10.5516 12.6049 9.84835 11.9017C9.14509 11.1984 8.75 10.2446 8.75 9.25ZM5 19.457C5 16.582 7.33203 14.25 10.207 14.25H14.793C17.668 14.25 20 16.582 20 19.457C20 20.0312 19.5352 20.5 18.957 20.5H6.04297C5.46875 20.5 5 20.0352 5 19.457Z" fill="#FACC15"/>
</svg>
