<svg width="64" height="65" viewBox="0 0 64 65" fill="none" xmlns="http://www.w3.org/2000/svg">
<path d="M52 0.760742C58.6274 0.760742 64 6.13333 64 12.7607V52.7607C64 59.3882 58.6274 64.7607 52 64.7607H12C5.37258 64.7607 0 59.3882 0 52.7607V12.7607C0 6.13333 5.37258 0.760742 12 0.760742H52Z" fill="url(#paint0_linear_3_242)"/>
<path d="M52 0.760742C58.6274 0.760742 64 6.13333 64 12.7607V52.7607C64 59.3882 58.6274 64.7607 52 64.7607H12C5.37258 64.7607 0 59.3882 0 52.7607V12.7607C0 6.13333 5.37258 0.760742 12 0.760742H52Z" stroke="#E5E7EB"/>
<path d="M42.5 48.6838H21.5V16.6838H42.5V48.6838Z" stroke="#E5E7EB"/>
<g clip-path="url(#clip0_3_242)">
<path d="M37.9998 30.1837C40.4842 30.1837 42.4998 28.1681 42.4998 25.6838C42.4998 23.1994 40.4842 21.1838 37.9998 21.1838C35.5155 21.1838 33.4999 23.1994 33.4999 25.6838C33.4999 25.8713 33.5093 26.0588 33.5327 26.2416L29.1218 28.4447C28.3156 27.6619 27.214 27.1838 26 27.1838C23.5156 27.1838 21.5 29.1994 21.5 31.6837C21.5 34.1681 23.5156 36.1837 26 36.1837C27.214 36.1837 28.3156 35.7056 29.1218 34.9228L33.5327 37.1259C33.5093 37.3087 33.4999 37.4915 33.4999 37.6837C33.4999 40.168 35.5155 42.1836 37.9998 42.1836C40.4842 42.1836 42.4998 40.168 42.4998 37.6837C42.4998 35.1993 40.4842 33.1837 37.9998 33.1837C36.7858 33.1837 35.6842 33.6618 34.878 34.4446L30.4671 32.2415C30.4905 32.0587 30.4999 31.8759 30.4999 31.6837C30.4999 31.4915 30.4905 31.3087 30.4671 31.1259L34.878 28.9228C35.6842 29.7056 36.7858 30.1837 37.9998 30.1837Z" fill="white"/>
</g>
<defs>
<linearGradient id="paint0_linear_3_242" x1="0" y1="32.7607" x2="64" y2="32.7607" gradientUnits="userSpaceOnUse">
<stop stop-color="#EC4899"/>
<stop offset="1" stop-color="#EF4444"/>
</linearGradient>
<clipPath id="clip0_3_242">
<path d="M21.5 19.6838H42.4998V43.6836H21.5V19.6838Z" fill="white"/>
</clipPath>
</defs>
</svg>
