<svg width="16" height="21" viewBox="0 0 16 21" fill="none" xmlns="http://www.w3.org/2000/svg">
<path d="M8.15625 20.5C4.01562 20.5 0.65625 17.1406 0.65625 13C0.65625 9.4375 5.74219 2.75391 7.16406 0.957031C7.39844 0.664062 7.74609 0.5 8.12109 0.5H8.19141C8.56641 0.5 8.91406 0.664062 9.14844 0.957031C10.5703 2.75391 15.6562 9.4375 15.6562 13C15.6562 17.1406 12.2969 20.5 8.15625 20.5ZM4.40625 13.625C4.40625 13.2812 4.125 13 3.78125 13C3.4375 13 3.15625 13.2812 3.15625 13.625C3.15625 16.043 5.11328 18 7.53125 18C7.875 18 8.15625 17.7188 8.15625 17.375C8.15625 17.0312 7.875 16.75 7.53125 16.75C5.80469 16.75 4.40625 15.3516 4.40625 13.625Z" fill="#6C0EDC"/>
</svg>
