<svg width="64" height="65" viewBox="0 0 64 65" fill="none" xmlns="http://www.w3.org/2000/svg">
<path d="M52 0.836182C58.6274 0.836182 64 6.20877 64 12.8362V52.8362C64 59.4636 58.6274 64.8362 52 64.8362H12C5.37258 64.8362 0 59.4636 0 52.8362V12.8362C0 6.20877 5.37258 0.836182 12 0.836182H52Z" fill="url(#paint0_linear_3_226)"/>
<path d="M52 0.836182C58.6274 0.836182 64 6.20877 64 12.8362V52.8362C64 59.4636 58.6274 64.8362 52 64.8362H12C5.37258 64.8362 0 59.4636 0 52.8362V12.8362C0 6.20877 5.37258 0.836182 12 0.836182H52Z" stroke="#E5E7EB"/>
<path d="M42.5 48.7607H21.5V16.7607H42.5V48.7607Z" stroke="#E5E7EB"/>
<g clip-path="url(#clip0_3_226)">
<path d="M28.25 26.5107V28.7607H35.75V26.5107C35.75 24.4389 34.0719 22.7607 32 22.7607C29.9281 22.7607 28.25 24.4389 28.25 26.5107ZM25.25 28.7607V26.5107C25.25 22.7842 28.2734 19.7607 32 19.7607C35.7266 19.7607 38.75 22.7842 38.75 26.5107V28.7607H39.5C41.1547 28.7607 42.5 30.1061 42.5 31.7607V40.7607C42.5 42.4154 41.1547 43.7607 39.5 43.7607H24.5C22.8453 43.7607 21.5 42.4154 21.5 40.7607V31.7607C21.5 30.1061 22.8453 28.7607 24.5 28.7607H25.25Z" fill="white"/>
</g>
<defs>
<linearGradient id="paint0_linear_3_226" x1="0" y1="32.8362" x2="64" y2="32.8362" gradientUnits="userSpaceOnUse">
<stop stop-color="#22C55E"/>
<stop offset="1" stop-color="#14B8A6"/>
</linearGradient>
<clipPath id="clip0_3_226">
<path d="M21.5 19.7607H42.5V43.7607H21.5V19.7607Z" fill="white"/>
</clipPath>
</defs>
</svg>
