<svg width="196" height="33" viewBox="0 0 196 33" fill="none" xmlns="http://www.w3.org/2000/svg">
      <g clip-path="url(#clip0_7_1299)">
      <path d="M26.9833 0.0417023C39.5252 -0.654537 49.7599 7.53831 57.2873 16.4426L57.2538 16.5389C50.5031 24.2505 41.3325 32.0936 30.5147 32.9302C18.2636 33.8775 7.35672 25.1136 0 16.4555C4.26474 11.4968 9.12158 6.85009 14.9568 3.69616C18.5674 1.7454 22.8346 0.271911 26.9833 0.0417023ZM19.8937 16.0809C20.0072 11.7944 23.6635 8.103 28.0254 7.90969L28.1365 7.82146V3.97129C27.6767 4.06995 27.1826 4.04829 26.7057 4.11246C20.6924 4.91939 15.9082 10.0762 15.8739 16.0817H19.8945L19.8937 16.0809ZM41.3374 16.0809C41.3325 9.59976 35.6582 4.04027 29.0741 4.03626V7.91932C33.5038 8.00274 37.1674 11.7567 37.3161 16.0809H41.3366H41.3374ZM27.787 9.84761C24.7595 10.1356 22.1469 12.8989 21.9052 15.8515C21.3833 22.2219 29.4236 25.7063 33.6655 20.8206C37.6574 16.2221 33.9979 9.25725 27.787 9.84761ZM41.3374 17.0025H37.4173C37.4035 17.0025 37.3814 16.9576 37.3504 16.952C37.1944 16.9648 37.2622 17.4068 37.2417 17.5536C36.6521 21.6941 33.3233 24.771 29.0749 25.0975V29.0463C35.6345 28.9156 41.1708 23.4419 41.3383 17.0017L41.3374 17.0025ZM19.8937 17.0025H15.8731C16.0487 23.4652 21.5516 28.8859 28.1365 29.0471V25.0983C23.7689 24.8336 20.1469 21.3051 19.8945 17.0033L19.8937 17.0025Z" fill="url(#paint0_linear_7_1299)"/>
      <path d="M28.1226 11.6909C31.9823 11.3043 34.5891 15.3421 32.8382 18.6918C31.2971 21.6412 27.19 22.1385 24.9849 19.6038C22.4605 16.7025 24.2507 12.0783 28.1226 11.6909ZM30.8667 13.9906C30.6168 14.0299 30.2819 14.2625 30.1455 14.4678C29.4571 15.5066 30.9247 16.648 31.8222 15.7849C32.5727 15.0638 31.8614 13.835 30.8667 13.9906Z" fill="url(#paint1_linear_7_1299)"/>
      <path d="M70.7039 26.559C68.9072 25.5756 67.4804 24.2007 66.4244 22.4361C65.3676 20.6714 64.8401 18.6878 64.8401 16.4844C64.8401 14.2809 65.3676 12.3029 66.4244 10.5487C67.4804 8.79524 68.9072 7.42602 70.7039 6.44182C72.5006 5.45842 74.477 4.96592 76.633 4.96592C78.7891 4.96592 80.7655 5.45842 82.5622 6.44182C84.3589 7.42602 85.7742 8.79524 86.8089 10.5487C87.8429 12.3029 88.3606 14.2817 88.3606 16.4844C88.3606 18.687 87.838 20.6714 86.7926 22.4361C85.7472 24.2007 84.3311 25.5756 82.5458 26.559C80.7597 27.5432 78.7891 28.0349 76.633 28.0349C74.477 28.0349 72.5006 27.5432 70.7039 26.559ZM81.0268 21.2321C82.1261 20.0345 82.6765 18.452 82.6765 16.4836C82.6765 14.5152 82.1261 12.9061 81.0268 11.719C79.9267 10.5318 78.4624 9.93826 76.633 9.93826C74.8036 9.93826 73.3058 10.527 72.2066 11.7029C71.1065 12.8796 70.5569 14.4734 70.5569 16.4836C70.5569 18.4937 71.1065 20.061 72.2066 21.2481C73.3058 22.4353 74.7816 23.0289 76.633 23.0289C78.4845 23.0289 79.9267 22.4305 81.0268 21.2321Z" fill="white"/>
      <path d="M97.4095 23.3176H107.275V27.8095H91.0721V23.6385L100.872 9.77784H91.0721V5.28597H107.275V9.45699L97.4095 23.3176Z" fill="white"/>
      <path d="M125.21 23.8318H116.651L115.279 27.8103H109.431L117.729 5.28677H124.197L132.494 27.8103H126.582L125.21 23.8318ZM123.773 19.5958L120.931 11.35L118.122 19.5958H123.773Z" fill="white"/>
      <path d="M146.705 27.8095L141.935 19.307H140.596V27.8095H135.01V5.28677H144.385C146.193 5.28677 147.734 5.59719 149.008 6.21723C150.282 6.83807 151.234 7.68831 151.866 8.76797C152.498 9.84842 152.814 11.0516 152.814 12.3775C152.814 13.8751 152.383 15.2122 151.523 16.3881C150.662 17.5648 149.394 18.399 147.717 18.8907L153.01 27.8103H146.705V27.8095ZM140.597 15.4248H144.06C145.083 15.4248 145.851 15.1793 146.363 14.6868C146.874 14.1951 147.13 13.4997 147.13 12.6013C147.13 11.7029 146.874 11.0725 146.363 10.58C145.851 10.0883 145.083 9.84201 144.06 9.84201H140.597V15.4248Z" fill="white"/>
      <path d="M161.797 5.28677V18.7624C161.797 20.1099 162.134 21.1479 162.81 21.8746C163.484 22.6021 164.476 22.9655 165.783 22.9655C167.089 22.9655 168.091 22.6021 168.788 21.8746C169.485 21.1479 169.833 20.1099 169.833 18.7624V5.28677H175.419V18.7303C175.419 20.7412 174.983 22.4417 174.113 23.8318C173.241 25.2226 172.071 26.2702 170.601 26.9761C169.131 27.6819 167.492 28.0349 165.685 28.0349C163.877 28.0349 162.259 27.6876 160.833 26.9921C159.407 26.2975 158.28 25.2491 157.452 23.8478C156.624 22.4473 156.211 20.7412 156.211 18.7303V5.28677H161.797Z" fill="white"/>
      <path d="M183.129 27.232C181.8 26.6978 180.739 25.9061 179.944 24.8577C179.148 23.8101 178.73 22.5476 178.686 21.0717H184.632C184.718 21.9059 185.012 22.5428 185.514 22.9807C186.014 23.4195 186.668 23.6385 187.474 23.6385C188.28 23.6385 188.954 23.4516 189.434 23.077C189.912 22.7032 190.153 22.1842 190.153 21.5209C190.153 20.965 189.961 20.5054 189.581 20.1412C189.199 19.7779 188.731 19.4787 188.176 19.2428C187.621 19.0078 186.831 18.7407 185.808 18.4407C184.326 17.9915 183.118 17.5424 182.182 17.0932C181.245 16.644 180.439 15.9814 179.764 15.1039C179.089 14.2272 178.752 13.0826 178.752 11.6708C178.752 9.5749 179.524 7.93296 181.071 6.74583C182.617 5.55869 184.632 4.96512 187.114 4.96512C189.597 4.96512 191.676 5.55869 193.223 6.74583C194.769 7.93296 195.597 9.58533 195.706 11.7029H189.663C189.618 10.9762 189.346 10.4035 188.846 9.98639C188.344 9.56929 187.702 9.36074 186.918 9.36074C186.243 9.36074 185.698 9.5372 185.285 9.89013C184.871 10.2431 184.664 10.7516 184.664 11.4142C184.664 12.1417 185.012 12.7088 185.71 13.1147C186.406 13.5213 187.495 13.9601 188.976 14.4301C190.457 14.9226 191.66 15.3927 192.586 15.8419C193.512 16.291 194.312 16.944 194.987 17.799C195.662 18.6549 196 19.7562 196 21.1038C196 22.4513 195.668 23.5534 195.004 24.601C194.339 25.6494 193.375 26.4836 192.113 27.1036C190.849 27.7245 189.357 28.0341 187.637 28.0341C185.917 28.0341 184.457 27.767 183.129 27.232Z" fill="white"/>
      </g>
      <defs>
      <linearGradient id="paint0_linear_7_1299" x1="0" y1="16.4996" x2="57.2865" y2="16.4996" gradientUnits="userSpaceOnUse">
      <stop stop-color="#460C97"/>
      <stop offset="1" stop-color="#6C0EDC"/>
      </linearGradient>
      <linearGradient id="paint1_linear_7_1299" x1="23.8138" y1="16.4515" x2="33.3943" y2="16.4515" gradientUnits="userSpaceOnUse">
      <stop stop-color="#460C97"/>
      <stop offset="1" stop-color="#6C0EDC"/>
      </linearGradient>
      <clipPath id="clip0_7_1299">
      <rect width="196" height="33" fill="white"/>
      </clipPath>
      </defs>
      </svg>
