<svg width="21" height="21" viewBox="0 0 21 21" fill="none" xmlns="http://www.w3.org/2000/svg">
<g clip-path="url(#clip0_3_1020)">
<path d="M2.82812 3C2.82812 2.30859 2.26953 1.75 1.57812 1.75C0.886719 1.75 0.328125 2.30859 0.328125 3V16.125C0.328125 17.8516 1.72656 19.25 3.45312 19.25H19.0781C19.7695 19.25 20.3281 18.6914 20.3281 18C20.3281 17.3086 19.7695 16.75 19.0781 16.75H3.45312C3.10938 16.75 2.82812 16.4688 2.82812 16.125V3ZM18.7109 6.38281C19.1992 5.89453 19.1992 5.10156 18.7109 4.61328C18.2227 4.125 17.4297 4.125 16.9414 4.61328L12.8281 8.73047L10.5859 6.48828C10.0977 6 9.30469 6 8.81641 6.48828L4.44141 10.8633C3.95312 11.3516 3.95312 12.1445 4.44141 12.6328C4.92969 13.1211 5.72266 13.1211 6.21094 12.6328L9.70312 9.14453L11.9453 11.3867C12.4336 11.875 13.2266 11.875 13.7148 11.3867L18.7148 6.38672L18.7109 6.38281Z" fill="#00D4FF"/>
</g>
<defs>
<clipPath id="clip0_3_1020">
<path d="M0.328125 0.5H20.3281V20.5H0.328125V0.5Z" fill="white"/>
</clipPath>
</defs>
</svg>
