<svg width="17" height="16" viewBox="0 0 17 16" fill="none" xmlns="http://www.w3.org/2000/svg">
<g clip-path="url(#clip0_3_1234)">
<path d="M0.171875 2C0.171875 0.896875 1.06875 0 2.17188 0H7.17188V4C7.17188 4.55312 7.61875 5 8.17188 5H12.1719V9.5H5.67188C4.56875 9.5 3.67188 10.3969 3.67188 11.5V16H2.17188C1.06875 16 0.171875 15.1031 0.171875 14V2ZM12.1719 4H8.17188V0L12.1719 4ZM5.67188 11H6.67188C7.6375 11 8.42188 11.7844 8.42188 12.75C8.42188 13.7156 7.6375 14.5 6.67188 14.5H6.17188V15.5C6.17188 15.775 5.94688 16 5.67188 16C5.39687 16 5.17188 15.775 5.17188 15.5V14V11.5C5.17188 11.225 5.39687 11 5.67188 11ZM6.67188 13.5C7.0875 13.5 7.42188 13.1656 7.42188 12.75C7.42188 12.3344 7.0875 12 6.67188 12H6.17188V13.5H6.67188ZM9.67188 11H10.6719C11.5 11 12.1719 11.6719 12.1719 12.5V14.5C12.1719 15.3281 11.5 16 10.6719 16H9.67188C9.39688 16 9.17188 15.775 9.17188 15.5V11.5C9.17188 11.225 9.39688 11 9.67188 11ZM10.6719 15C10.9469 15 11.1719 14.775 11.1719 14.5V12.5C11.1719 12.225 10.9469 12 10.6719 12H10.1719V15H10.6719ZM13.1719 11.5C13.1719 11.225 13.3969 11 13.6719 11H15.1719C15.4469 11 15.6719 11.225 15.6719 11.5C15.6719 11.775 15.4469 12 15.1719 12H14.1719V13H15.1719C15.4469 13 15.6719 13.225 15.6719 13.5C15.6719 13.775 15.4469 14 15.1719 14H14.1719V15.5C14.1719 15.775 13.9469 16 13.6719 16C13.3969 16 13.1719 15.775 13.1719 15.5V13.5V11.5Z" fill="white"/>
</g>
<defs>
<clipPath id="clip0_3_1234">
<path d="M0.171875 0H16.1719V16H0.171875V0Z" fill="white"/>
</clipPath>
</defs>
</svg>
