<svg width="64" height="65" viewBox="0 0 64 65" fill="none" xmlns="http://www.w3.org/2000/svg">
<path d="M52 0.526367C58.6274 0.526367 64 5.89895 64 12.5264V52.5264C64 59.1538 58.6274 64.5264 52 64.5264H12C5.37258 64.5264 0 59.1538 0 52.5264V12.5264C0 5.89895 5.37258 0.526367 12 0.526367H52Z" fill="url(#paint0_linear_3_210)"/>
<path d="M52 0.526367C58.6274 0.526367 64 5.89895 64 12.5264V52.5264C64 59.1538 58.6274 64.5264 52 64.5264H12C5.37258 64.5264 0 59.1538 0 52.5264V12.5264C0 5.89895 5.37258 0.526367 12 0.526367H52Z" stroke="#E5E7EB"/>
<path d="M44 48.4468H20V16.4468H44V48.4468Z" stroke="#E5E7EB"/>
<g clip-path="url(#clip0_3_210)">
<path d="M32 19.3655C32.2156 19.3655 32.4313 19.4124 32.6281 19.5014L41.4547 23.2467C42.486 23.6827 43.2547 24.6999 43.25 25.928C43.2266 30.578 41.3141 39.0858 33.2375 42.953C32.4547 43.328 31.5453 43.328 30.7625 42.953C22.686 39.0858 20.7735 30.578 20.75 25.928C20.7453 24.6999 21.5141 23.6827 22.5453 23.2467L31.3766 19.5014C31.5688 19.4124 31.7844 19.3655 32 19.3655ZM32 22.4967V40.2155C38.4688 37.0842 40.2078 30.1514 40.25 25.9936L32 22.4967Z" fill="white"/>
</g>
<defs>
<linearGradient id="paint0_linear_3_210" x1="0" y1="32.5264" x2="64" y2="32.5264" gradientUnits="userSpaceOnUse">
<stop stop-color="#06B6D4"/>
<stop offset="1" stop-color="#3B82F6"/>
</linearGradient>
<clipPath id="clip0_3_210">
<path d="M20 19.3655H44V43.3655H20V19.3655Z" fill="white"/>
</clipPath>
</defs>
</svg>
