<svg width="64" height="65" viewBox="0 0 64 65" fill="none" xmlns="http://www.w3.org/2000/svg">
<path d="M52 0.983887C58.6274 0.983887 64 6.35647 64 12.9839V52.9839C64 59.6113 58.6274 64.9839 52 64.9839H12C5.37258 64.9839 0 59.6113 0 52.9839V12.9839C0 6.35647 5.37258 0.983887 12 0.983887H52Z" fill="url(#paint0_linear_3_201)"/>
<path d="M52 0.983887C58.6274 0.983887 64 6.35647 64 12.9839V52.9839C64 59.6113 58.6274 64.9839 52 64.9839H12C5.37258 64.9839 0 59.6113 0 52.9839V12.9839C0 6.35647 5.37258 0.983887 12 0.983887H52Z" stroke="#E5E7EB"/>
<path d="M44 48.9109H20V16.9109H44V48.9109Z" stroke="#E5E7EB"/>
<g clip-path="url(#clip0_3_201)">
<path d="M28.625 19.8362C30.0734 19.8362 31.25 21.0127 31.25 22.4612V41.2112C31.25 42.6596 30.0734 43.8362 28.625 43.8362C27.2703 43.8362 26.1547 42.8096 26.0141 41.4877C25.7703 41.5534 25.5125 41.5862 25.25 41.5862C23.5953 41.5862 22.25 40.2409 22.25 38.5862C22.25 38.2393 22.3109 37.9018 22.4187 37.5924C21.0031 37.0581 20 35.6893 20 34.0862C20 32.5909 20.8766 31.2971 22.1469 30.6971C21.7391 30.1862 21.5 29.5393 21.5 28.8362C21.5 27.3971 22.5125 26.1971 23.8625 25.9018C23.7875 25.644 23.75 25.3674 23.75 25.0862C23.75 23.6846 24.7156 22.5034 26.0141 22.1752C26.1547 20.8627 27.2703 19.8362 28.625 19.8362ZM35.375 19.8362C36.7297 19.8362 37.8406 20.8627 37.9859 22.1752C39.2891 22.5034 40.25 23.6799 40.25 25.0862C40.25 25.3674 40.2125 25.644 40.1375 25.9018C41.4875 26.1924 42.5 27.3971 42.5 28.8362C42.5 29.5393 42.2609 30.1862 41.8531 30.6971C43.1234 31.2971 44 32.5909 44 34.0862C44 35.6893 42.9969 37.0581 41.5812 37.5924C41.6891 37.9018 41.75 38.2393 41.75 38.5862C41.75 40.2409 40.4047 41.5862 38.75 41.5862C38.4875 41.5862 38.2297 41.5534 37.9859 41.4877C37.8453 42.8096 36.7297 43.8362 35.375 43.8362C33.9266 43.8362 32.75 42.6596 32.75 41.2112V22.4612C32.75 21.0127 33.9266 19.8362 35.375 19.8362Z" fill="white"/>
</g>
<defs>
<linearGradient id="paint0_linear_3_201" x1="0" y1="32.9839" x2="64" y2="32.9839" gradientUnits="userSpaceOnUse">
<stop stop-color="#14B8A6"/>
<stop offset="1" stop-color="#06B6D4"/>
</linearGradient>
<clipPath id="clip0_3_201">
<path d="M20 19.8362H44V43.8362H20V19.8362Z" fill="white"/>
</clipPath>
</defs>
</svg>
