<svg width="64" height="65" viewBox="0 0 64 65" fill="none" xmlns="http://www.w3.org/2000/svg">
<path d="M52 0.68335C58.6274 0.68335 64 6.05593 64 12.6833V52.6833C64 59.3108 58.6274 64.6833 52 64.6833H12C5.37258 64.6833 0 59.3108 0 52.6833V12.6833C0 6.05593 5.37258 0.68335 12 0.68335H52Z" fill="url(#paint0_linear_3_218)"/>
<path d="M52 0.68335C58.6274 0.68335 64 6.05593 64 12.6833V52.6833C64 59.3108 58.6274 64.6833 52 64.6833H12C5.37258 64.6833 0 59.3108 0 52.6833V12.6833C0 6.05593 5.37258 0.68335 12 0.68335H52Z" stroke="#E5E7EB"/>
<path d="M45.5 48.6833H18.5V16.6833H45.5V48.6833Z" stroke="#E5E7EB"/>
<g clip-path="url(#clip0_3_218)">
<path d="M32.75 30.8557V20.3838C32.75 19.962 33.0781 19.6057 33.5 19.6057C39.2984 19.6057 44 24.3073 44 30.1057C44 30.5276 43.6438 30.8557 43.2219 30.8557H32.75ZM20 32.3557C20 26.6698 24.2234 21.9635 29.7031 21.2135C30.1344 21.1526 30.5 21.4995 30.5 21.9354V33.1057L37.8359 40.4417C38.15 40.7557 38.1266 41.2713 37.7656 41.5245C35.9281 42.837 33.6781 43.6057 31.25 43.6057C25.0391 43.6057 20 38.5713 20 32.3557ZM44.675 33.1057C45.1109 33.1057 45.4531 33.4713 45.3969 33.9026C45.0359 36.5229 43.775 38.8526 41.9328 40.5729C41.6516 40.8354 41.2109 40.8167 40.9391 40.5401L33.5 33.1057H44.675Z" fill="white"/>
</g>
<defs>
<linearGradient id="paint0_linear_3_218" x1="0" y1="32.6833" x2="64" y2="32.6833" gradientUnits="userSpaceOnUse">
<stop stop-color="#3B82F6"/>
<stop offset="1" stop-color="#A855F7"/>
</linearGradient>
<clipPath id="clip0_3_218">
<path d="M18.5 19.6057H45.5V43.6057H18.5V19.6057Z" fill="white"/>
</clipPath>
</defs>
</svg>
